<mxfile host="app.diagrams.net" modified="2023-11-26T07:53:15.478Z" agent="Mozilla/5.0 (Windows NT 10.0; Win64; x64) AppleWebKit/537.36 (KHTML, like Gecko) Chrome/119.0.0.0 Safari/537.36" etag="B7DYlD20GAT7hhvWliJx" version="22.1.4" type="device">
  <diagram id="c8oBW-qjvavsfD2tW6SP" name="Page-1">
    <mxGraphModel dx="1331" dy="-628" grid="1" gridSize="10" guides="1" tooltips="1" connect="1" arrows="1" fold="1" page="1" pageScale="1" pageWidth="827" pageHeight="1169" math="0" shadow="0">
      <root>
        <mxCell id="0" />
        <mxCell id="1" parent="0" />
        <mxCell id="xrFbDY1ulE0IEn7EpgWR-1" style="edgeStyle=orthogonalEdgeStyle;rounded=0;orthogonalLoop=1;jettySize=auto;html=1;exitX=0.5;exitY=0;exitDx=0;exitDy=0;entryX=0.5;entryY=1;entryDx=0;entryDy=0;endArrow=block;endFill=0;" parent="1" source="xrFbDY1ulE0IEn7EpgWR-8" target="xrFbDY1ulE0IEn7EpgWR-3" edge="1">
          <mxGeometry relative="1" as="geometry">
            <Array as="points">
              <mxPoint x="1145" y="3610" />
              <mxPoint x="1817" y="3610" />
            </Array>
          </mxGeometry>
        </mxCell>
        <mxCell id="_eumr9OaMfdWc7wBKZ6G-8" style="edgeStyle=orthogonalEdgeStyle;rounded=0;orthogonalLoop=1;jettySize=auto;html=1;exitX=0.5;exitY=0;exitDx=0;exitDy=0;endArrow=block;endFill=0;" parent="1" source="_eumr9OaMfdWc7wBKZ6G-1" target="xrFbDY1ulE0IEn7EpgWR-3" edge="1">
          <mxGeometry relative="1" as="geometry">
            <Array as="points">
              <mxPoint x="35" y="3610" />
              <mxPoint x="1817" y="3610" />
            </Array>
          </mxGeometry>
        </mxCell>
        <mxCell id="X3__ifQOlJoH67yWw0tZ-2" style="edgeStyle=orthogonalEdgeStyle;rounded=0;orthogonalLoop=1;jettySize=auto;html=1;entryX=0.5;entryY=0;entryDx=0;entryDy=0;endArrow=none;endFill=0;startArrow=block;startFill=0;" parent="1" source="xrFbDY1ulE0IEn7EpgWR-3" target="xrFbDY1ulE0IEn7EpgWR-30" edge="1">
          <mxGeometry relative="1" as="geometry">
            <Array as="points">
              <mxPoint x="1817" y="3610" />
              <mxPoint x="2605" y="3610" />
            </Array>
          </mxGeometry>
        </mxCell>
        <mxCell id="xrFbDY1ulE0IEn7EpgWR-3" value="Sprite" style="swimlane;fontStyle=1;align=center;verticalAlign=top;childLayout=stackLayout;horizontal=1;startSize=26;horizontalStack=0;resizeParent=1;resizeParentMax=0;resizeLast=0;collapsible=1;marginBottom=0;fillColor=#FFCCE6;strokeColor=#36393d;" parent="1" vertex="1">
          <mxGeometry x="1620" y="2780" width="394" height="748" as="geometry" />
        </mxCell>
        <mxCell id="xrFbDY1ulE0IEn7EpgWR-4" value="- x: int&#xa;- y: int&#xa;&#xa;- render_x: int&#xa;- render_y: int&#xa;&#xa;- width: int&#xa;- height: int&#xa;&#xa;- texture: SDL_Texture*&#xa;- viewport: SDL_Rect&#xa;&#xa;- level_width: int&#xa;- level_height: int&#xa;" style="text;strokeColor=none;fillColor=none;align=left;verticalAlign=top;spacingLeft=4;spacingRight=4;overflow=hidden;rotatable=0;points=[[0,0.5],[1,0.5]];portConstraint=eastwest;" parent="xrFbDY1ulE0IEn7EpgWR-3" vertex="1">
          <mxGeometry y="26" width="394" height="216" as="geometry" />
        </mxCell>
        <mxCell id="xrFbDY1ulE0IEn7EpgWR-5" value="" style="line;strokeWidth=1;fillColor=none;align=left;verticalAlign=middle;spacingTop=-1;spacingLeft=3;spacingRight=3;rotatable=0;labelPosition=right;points=[];portConstraint=eastwest;strokeColor=inherit;" parent="xrFbDY1ulE0IEn7EpgWR-3" vertex="1">
          <mxGeometry y="242" width="394" height="8" as="geometry" />
        </mxCell>
        <mxCell id="xrFbDY1ulE0IEn7EpgWR-6" value="+ Sprite()&#xa;+ Sprite(x: int, y: int, texture: SDL_Texture*)&#xa;+ ~Sprite()&#xa;&#xa;+ setX(x: int): bool&#xa;+ setY(y: int): bool&#xa;+ setRenderX(camera_x: int): bool&#xa;+ setRenderY(camera_y: int): bool&#xa;+ setWidth(width: int): bool&#xa;+ setHeight(height: int): bool&#xa;+ setCoordinates(x: int, y: int): bool&#xa;+ setRenderCoordinates(camera_x: int, camera_y: int): bool&#xa;+ setTexture(texture: SDL_Texture*): bool&#xa;+ loadLevelWidth(level_wicth: int): bool&#xa;+ loadLevelHeight(level_height: int): bool&#xa;&#xa;+ getX(): int&#xa;+ getY(): int&#xa;+ getRenderX(): int&#xa;+ getRenderY(): int&#xa;+ getWidth(): int&#xa;+ getHeight(): int&#xa;+ getTopBound(): int&#xa;+ getBottomBound(): int&#xa;+ getLeftBound(): int&#xa;+ getRightBound(): int&#xa;+ getTexture(): SDL_Texture*&#xa;+ getViewport(): SDL_Rect&#xa;+ getLevelWidth(): int&#xa;+ getLevelHeight: int&#xa;&#xa;+ checkCollision(arg: Sprite&amp;)&#xa;&#xa;+ render(renderer: SDL_Renderer*, camera_follow = true: bool): bool" style="text;strokeColor=none;fillColor=none;align=left;verticalAlign=top;spacingLeft=4;spacingRight=4;overflow=hidden;rotatable=0;points=[[0,0.5],[1,0.5]];portConstraint=eastwest;" parent="xrFbDY1ulE0IEn7EpgWR-3" vertex="1">
          <mxGeometry y="250" width="394" height="498" as="geometry" />
        </mxCell>
        <mxCell id="xrFbDY1ulE0IEn7EpgWR-7" style="edgeStyle=orthogonalEdgeStyle;rounded=0;orthogonalLoop=1;jettySize=auto;html=1;exitX=0.5;exitY=0;exitDx=0;exitDy=0;endArrow=block;endFill=0;" parent="1" source="xrFbDY1ulE0IEn7EpgWR-14" target="xrFbDY1ulE0IEn7EpgWR-8" edge="1">
          <mxGeometry relative="1" as="geometry">
            <Array as="points">
              <mxPoint x="715" y="4820" />
              <mxPoint x="1125" y="4820" />
            </Array>
            <mxPoint x="930" y="4680" as="sourcePoint" />
          </mxGeometry>
        </mxCell>
        <mxCell id="rHJlb6HxjNZ4FKYGz4qk-4" style="edgeStyle=orthogonalEdgeStyle;rounded=0;orthogonalLoop=1;jettySize=auto;html=1;entryX=0;entryY=0.5;entryDx=0;entryDy=0;endArrow=none;endFill=0;startArrow=diamond;startFill=0;" parent="1" source="xrFbDY1ulE0IEn7EpgWR-8" target="xrFbDY1ulE0IEn7EpgWR-62" edge="1">
          <mxGeometry relative="1" as="geometry" />
        </mxCell>
        <mxCell id="rHJlb6HxjNZ4FKYGz4qk-5" value="1" style="edgeLabel;html=1;align=center;verticalAlign=middle;resizable=0;points=[];" parent="rHJlb6HxjNZ4FKYGz4qk-4" vertex="1" connectable="0">
          <mxGeometry x="0.8699" y="4" relative="1" as="geometry">
            <mxPoint y="1" as="offset" />
          </mxGeometry>
        </mxCell>
        <mxCell id="rHJlb6HxjNZ4FKYGz4qk-6" value="1" style="edgeLabel;html=1;align=center;verticalAlign=middle;resizable=0;points=[];" parent="rHJlb6HxjNZ4FKYGz4qk-4" vertex="1" connectable="0">
          <mxGeometry x="-0.8862" y="3" relative="1" as="geometry">
            <mxPoint y="1" as="offset" />
          </mxGeometry>
        </mxCell>
        <mxCell id="xrFbDY1ulE0IEn7EpgWR-8" value="Character" style="swimlane;fontStyle=3;align=center;verticalAlign=top;childLayout=stackLayout;horizontal=1;startSize=26;horizontalStack=0;resizeParent=1;resizeParentMax=0;resizeLast=0;collapsible=1;marginBottom=0;fillColor=#dae8fc;strokeColor=#000000;" parent="1" vertex="1">
          <mxGeometry x="970" y="3700" width="350" height="934" as="geometry" />
        </mxCell>
        <mxCell id="xrFbDY1ulE0IEn7EpgWR-9" value="- animation: CharacterAnimation&#xa;&#xa;- collided: Collision&#xa;&#xa;- facing_direction: Direction&#xa;&#xa;- knockback : Knockback&#xa;&#xa;- is_running: bool&#xa;- is_jumping: bool&#xa;- is_falling: bool&#xa;- is_attacking: bool&#xa;&#xa;- run_speed: int&#xa;- gravitational_acceleration: int&#xa;- vertical_velocity: int&#xa;- initial_jump_velocity: int&#xa;- terminal_fall_velocity: int&#xa;- vertical_update_interval: int&#xa;" style="text;strokeColor=none;fillColor=none;align=left;verticalAlign=top;spacingLeft=4;spacingRight=4;overflow=hidden;rotatable=0;points=[[0,0.5],[1,0.5]];portConstraint=eastwest;" parent="xrFbDY1ulE0IEn7EpgWR-8" vertex="1">
          <mxGeometry y="26" width="350" height="274" as="geometry" />
        </mxCell>
        <mxCell id="xrFbDY1ulE0IEn7EpgWR-10" value="" style="line;strokeWidth=1;fillColor=none;align=left;verticalAlign=middle;spacingTop=-1;spacingLeft=3;spacingRight=3;rotatable=0;labelPosition=right;points=[];portConstraint=eastwest;strokeColor=inherit;" parent="xrFbDY1ulE0IEn7EpgWR-8" vertex="1">
          <mxGeometry y="300" width="350" height="8" as="geometry" />
        </mxCell>
        <mxCell id="xrFbDY1ulE0IEn7EpgWR-11" value="+ Character()&#xa;+ Character(x: int, y: int, animation: CharacterAnimation)&#xa;+ ~Character()&#xa;&#xa;+ setAnimation(animation: CharacterAnimation): bool&#xa;+ setCollision(collided: Collision): bool&#xa;+ setDirectionFacing(facing: Direction): bool&#xa;+ setKnockback(knockback: Knockback): bool&#xa;+ setRunningState(is_running: bool): bool&#xa;+ setJumpingState(is_jumping: bool): bool&#xa;+ setFallingState(is_falling: bool): bool&#xa;+ setAttackingState(is_attacking: bool): bool&#xa;+ setRunSpeed(pixels_per_frame: int): bool&#xa;+ setGravitationalAcceleration(grav_accel: int): bool&#xa;+ setVerticalVelocity(vertical_velocity: int): bool&#xa;+ setInitialJumpVelocity(initial_jump_velocity: int): bool&#xa;+ setTerminalFallVelocity(terminal_fall_velocity: int): bool&#xa;+ setVerticalUpdateInterval(vertical_update_interval: int): bool&#xa;&#xa;+ getAnimation(): CharacterAnimation&#xa;+ getCollisionDirections(): Collision&#xa;+ getDirectionFacing(): Direction&#xa;+ getKnockback(): Knockback&#xa;+ isRunning(): bool&#xa;+ isJumping(): bool&#xa;+ isFalling(): bool&#xa;+ isAttacking(): bool&#xa;+ isKnockedBack(): bool&#xa;+ getRunSpeed(): int&#xa;+ getGravitationalAcceleration(): int&#xa;+ getVerticalVelocity(): int&#xa;+ getInitialJumpVelocity(): int&#xa;+ getTerminalFallVelocity(): int&#xa;+ getVerticalUpdateInterval(): int&#xa;" style="text;strokeColor=none;fillColor=none;align=left;verticalAlign=top;spacingLeft=4;spacingRight=4;overflow=hidden;rotatable=0;points=[[0,0.5],[1,0.5]];portConstraint=eastwest;whiteSpace=wrap;fontStyle=0" parent="xrFbDY1ulE0IEn7EpgWR-8" vertex="1">
          <mxGeometry y="308" width="350" height="502" as="geometry" />
        </mxCell>
        <mxCell id="xrFbDY1ulE0IEn7EpgWR-12" value="+ run() = 0: void&#xa;+ jump() = 0: void&#xa;+ fall(): void&#xa;+ move() = 0: void&#xa;&#xa;+ setNextFrame() = 0: void&#xa;+ update() = 0: void" style="text;strokeColor=none;fillColor=none;align=left;verticalAlign=top;spacingLeft=4;spacingRight=4;overflow=hidden;rotatable=0;points=[[0,0.5],[1,0.5]];portConstraint=eastwest;whiteSpace=wrap;fontStyle=0" parent="xrFbDY1ulE0IEn7EpgWR-8" vertex="1">
          <mxGeometry y="810" width="350" height="124" as="geometry" />
        </mxCell>
        <mxCell id="xrFbDY1ulE0IEn7EpgWR-13" style="edgeStyle=orthogonalEdgeStyle;rounded=0;orthogonalLoop=1;jettySize=auto;html=1;exitX=0.5;exitY=0;exitDx=0;exitDy=0;endArrow=block;endFill=0;" parent="1" source="xrFbDY1ulE0IEn7EpgWR-21" target="xrFbDY1ulE0IEn7EpgWR-8" edge="1">
          <mxGeometry relative="1" as="geometry">
            <Array as="points">
              <mxPoint x="1260" y="4820" />
              <mxPoint x="1125" y="4820" />
            </Array>
          </mxGeometry>
        </mxCell>
        <mxCell id="xrFbDY1ulE0IEn7EpgWR-14" value="Player" style="swimlane;fontStyle=1;align=center;verticalAlign=top;childLayout=stackLayout;horizontal=1;startSize=26;horizontalStack=0;resizeParent=1;resizeParentMax=0;resizeLast=0;collapsible=1;marginBottom=0;whiteSpace=wrap;fillColor=#d5e8d4;strokeColor=#000000;" parent="1" vertex="1">
          <mxGeometry x="550" y="4870" width="330" height="538" as="geometry" />
        </mxCell>
        <mxCell id="xrFbDY1ulE0IEn7EpgWR-15" value="- current_horizontal_key: int&#xa;- simultaneous_horizontal_keys_pressed: bool&#xa;&#xa;- laser_beam_texture: SDL_Texture*&#xa;- laser_beams: vector&lt;LaserBeam&gt;&#xa;&#xa;- shooting_cooldown_count: int&#xa;&#xa;# user_actions: UserEvent" style="text;strokeColor=none;fillColor=none;align=left;verticalAlign=top;spacingLeft=4;spacingRight=4;overflow=hidden;rotatable=0;points=[[0,0.5],[1,0.5]];portConstraint=eastwest;" parent="xrFbDY1ulE0IEn7EpgWR-14" vertex="1">
          <mxGeometry y="26" width="330" height="142" as="geometry" />
        </mxCell>
        <mxCell id="xrFbDY1ulE0IEn7EpgWR-16" value="" style="line;strokeWidth=1;fillColor=none;align=left;verticalAlign=middle;spacingTop=-1;spacingLeft=3;spacingRight=3;rotatable=0;labelPosition=right;points=[];portConstraint=eastwest;strokeColor=inherit;" parent="xrFbDY1ulE0IEn7EpgWR-14" vertex="1">
          <mxGeometry y="168" width="330" height="8" as="geometry" />
        </mxCell>
        <mxCell id="xrFbDY1ulE0IEn7EpgWR-17" value="+ Player()&#xa;+ Player(x: int, y: int, animation: CharacterAnimation, user_actions: UserEvent, knockback: Knockback)&#xa;+ ~Player()&#xa;&#xa;+ loadLaserBeamTexture(laser_beam_texture: SDL_Texture*): bool&#xa;+ setShootingCooldownCount(val: int): bool&#xa;&#xa;+ getLaserBeams(): vector&lt;LaserBeam&gt;&amp;&#xa;+ getShootingCooldownCount(): int&#xa;&#xa;+ run(): void&#xa;+ jump(): void&#xa;+ move(): void&#xa;&#xa;+ collide(args: vector&lt;Ground&gt;&amp;): void&#xa;+ collide(args: vector&lt;Platform&gt;&amp;): void&#xa;&#xa;+ shoot(): void&#xa;&#xa;+ setNextFrame(): void&#xa;+ update(): void&#xa;+ render(renderer: SDL_Renderer*): void" style="text;strokeColor=none;fillColor=none;align=left;verticalAlign=top;spacingLeft=4;spacingRight=4;overflow=hidden;rotatable=0;points=[[0,0.5],[1,0.5]];portConstraint=eastwest;whiteSpace=wrap;fontStyle=0" parent="xrFbDY1ulE0IEn7EpgWR-14" vertex="1">
          <mxGeometry y="176" width="330" height="362" as="geometry" />
        </mxCell>
        <mxCell id="_eumr9OaMfdWc7wBKZ6G-66" style="edgeStyle=orthogonalEdgeStyle;rounded=0;orthogonalLoop=1;jettySize=auto;html=1;endArrow=block;endFill=0;exitX=0.5;exitY=0;exitDx=0;exitDy=0;" parent="1" source="a6dslvJ8g0uNkc3i4jEf-1" target="xrFbDY1ulE0IEn7EpgWR-21" edge="1">
          <mxGeometry relative="1" as="geometry">
            <Array as="points" />
            <mxPoint x="1265" y="5520" as="sourcePoint" />
          </mxGeometry>
        </mxCell>
        <mxCell id="xrFbDY1ulE0IEn7EpgWR-21" value="Enemy" style="swimlane;fontStyle=3;align=center;verticalAlign=top;childLayout=stackLayout;horizontal=1;startSize=26;horizontalStack=0;resizeParent=1;resizeParentMax=0;resizeLast=0;collapsible=1;marginBottom=0;fillColor=#e1d5e7;strokeColor=#000000;" parent="1" vertex="1">
          <mxGeometry x="1050" y="4870" width="430" height="500" as="geometry" />
        </mxCell>
        <mxCell id="xrFbDY1ulE0IEn7EpgWR-22" value="- damage_dealt: Damage&#xa;- update_interval: int&#xa;- attack_range: int" style="text;strokeColor=none;fillColor=none;align=left;verticalAlign=top;spacingLeft=4;spacingRight=4;overflow=hidden;rotatable=0;points=[[0,0.5],[1,0.5]];portConstraint=eastwest;" parent="xrFbDY1ulE0IEn7EpgWR-21" vertex="1">
          <mxGeometry y="26" width="430" height="54" as="geometry" />
        </mxCell>
        <mxCell id="xrFbDY1ulE0IEn7EpgWR-23" value="" style="line;strokeWidth=1;fillColor=none;align=left;verticalAlign=middle;spacingTop=-1;spacingLeft=3;spacingRight=3;rotatable=0;labelPosition=right;points=[];portConstraint=eastwest;strokeColor=inherit;" parent="xrFbDY1ulE0IEn7EpgWR-21" vertex="1">
          <mxGeometry y="80" width="430" height="8" as="geometry" />
        </mxCell>
        <mxCell id="xrFbDY1ulE0IEn7EpgWR-24" value="+ Enemy()&#xa;+ Enemy(x: int, y: int, animation: CharacterAnimation, damage_dealt: Damage, knockback: Knockback)&#xa;+ ~Enemy()" style="text;strokeColor=none;fillColor=none;align=left;verticalAlign=top;spacingLeft=4;spacingRight=4;overflow=hidden;rotatable=0;points=[[0,0.5],[1,0.5]];portConstraint=eastwest;whiteSpace=wrap;" parent="xrFbDY1ulE0IEn7EpgWR-21" vertex="1">
          <mxGeometry y="88" width="430" height="68" as="geometry" />
        </mxCell>
        <mxCell id="xrFbDY1ulE0IEn7EpgWR-26" value="+ setDamageDealt(damage_dealt: Damage): bool&#xa;+ setAttackDamage(attack_damage: int): bool&#xa;+ setUpdateInterval(update_interval: int)): bool&#xa;+ setAttackRange(attack_range: int)): bool" style="text;strokeColor=none;fillColor=none;align=left;verticalAlign=top;spacingLeft=4;spacingRight=4;overflow=hidden;rotatable=0;points=[[0,0.5],[1,0.5]];portConstraint=eastwest;" parent="xrFbDY1ulE0IEn7EpgWR-21" vertex="1">
          <mxGeometry y="156" width="430" height="74" as="geometry" />
        </mxCell>
        <mxCell id="xrFbDY1ulE0IEn7EpgWR-27" value="+ getDamageDealt(): Damage&#xa;+ getAttackDamage(): int&#xa;+ getUpdateInterval(): int&#xa;+ getAttackRange() : int" style="text;strokeColor=none;fillColor=none;align=left;verticalAlign=top;spacingLeft=4;spacingRight=4;overflow=hidden;rotatable=0;points=[[0,0.5],[1,0.5]];portConstraint=eastwest;" parent="xrFbDY1ulE0IEn7EpgWR-21" vertex="1">
          <mxGeometry y="230" width="430" height="70" as="geometry" />
        </mxCell>
        <mxCell id="xrFbDY1ulE0IEn7EpgWR-25" value="+ collide(args: vector&lt;Ground&gt;&amp;): void&#xa;+ collide(args: vector&lt;Platform&gt;&amp;): void&#xa;&#xa;+ atPlatformBoundary(platforms: vector&lt;Platform&gt;&amp;): bool&#xa;+ atGroundBoundary(grounds: vector&lt;Ground&gt;&amp;): bool&#xa;&#xa;+ run(): void&#xa;+ jump(): void&#xa;+ move(): void&#xa;&#xa;+ chasePlayer(Player&amp; arg, vector&lt;Ground&gt;&amp; grounds, vector&lt;Platform&gt;&amp; platforms) = 0: void&#xa;+ attack() = 0: void" style="text;strokeColor=none;fillColor=none;align=left;verticalAlign=top;spacingLeft=4;spacingRight=4;overflow=hidden;rotatable=0;points=[[0,0.5],[1,0.5]];portConstraint=eastwest;whiteSpace=wrap;" parent="xrFbDY1ulE0IEn7EpgWR-21" vertex="1">
          <mxGeometry y="300" width="430" height="200" as="geometry" />
        </mxCell>
        <mxCell id="X3__ifQOlJoH67yWw0tZ-3" style="edgeStyle=orthogonalEdgeStyle;rounded=0;orthogonalLoop=1;jettySize=auto;html=1;entryX=0.5;entryY=0;entryDx=0;entryDy=0;endArrow=none;endFill=0;startArrow=block;startFill=0;" parent="1" source="xrFbDY1ulE0IEn7EpgWR-30" target="xrFbDY1ulE0IEn7EpgWR-69" edge="1">
          <mxGeometry relative="1" as="geometry" />
        </mxCell>
        <mxCell id="X3__ifQOlJoH67yWw0tZ-4" style="edgeStyle=orthogonalEdgeStyle;rounded=0;orthogonalLoop=1;jettySize=auto;html=1;entryX=0.5;entryY=0;entryDx=0;entryDy=0;startArrow=block;startFill=0;endArrow=none;endFill=0;" parent="1" source="xrFbDY1ulE0IEn7EpgWR-30" target="xrFbDY1ulE0IEn7EpgWR-90" edge="1">
          <mxGeometry relative="1" as="geometry">
            <Array as="points">
              <mxPoint x="2600" y="4420" />
              <mxPoint x="2133" y="4420" />
            </Array>
          </mxGeometry>
        </mxCell>
        <mxCell id="X3__ifQOlJoH67yWw0tZ-6" style="edgeStyle=orthogonalEdgeStyle;rounded=0;orthogonalLoop=1;jettySize=auto;html=1;entryX=0.5;entryY=0;entryDx=0;entryDy=0;endArrow=none;endFill=0;startArrow=block;startFill=0;" parent="1" source="xrFbDY1ulE0IEn7EpgWR-30" target="xrFbDY1ulE0IEn7EpgWR-83" edge="1">
          <mxGeometry relative="1" as="geometry">
            <Array as="points">
              <mxPoint x="2600" y="4420" />
              <mxPoint x="3123" y="4420" />
            </Array>
          </mxGeometry>
        </mxCell>
        <mxCell id="rHJlb6HxjNZ4FKYGz4qk-10" style="edgeStyle=orthogonalEdgeStyle;rounded=0;orthogonalLoop=1;jettySize=auto;html=1;entryX=0;entryY=0.5;entryDx=0;entryDy=0;endArrow=none;endFill=0;startArrow=diamond;startFill=0;" parent="1" source="xrFbDY1ulE0IEn7EpgWR-30" target="xrFbDY1ulE0IEn7EpgWR-100" edge="1">
          <mxGeometry relative="1" as="geometry" />
        </mxCell>
        <mxCell id="rHJlb6HxjNZ4FKYGz4qk-11" value="1" style="edgeLabel;html=1;align=center;verticalAlign=middle;resizable=0;points=[];" parent="rHJlb6HxjNZ4FKYGz4qk-10" vertex="1" connectable="0">
          <mxGeometry x="0.8444" y="2" relative="1" as="geometry">
            <mxPoint as="offset" />
          </mxGeometry>
        </mxCell>
        <mxCell id="rHJlb6HxjNZ4FKYGz4qk-12" value="1" style="edgeLabel;html=1;align=center;verticalAlign=middle;resizable=0;points=[];" parent="rHJlb6HxjNZ4FKYGz4qk-10" vertex="1" connectable="0">
          <mxGeometry x="-0.8444" y="2" relative="1" as="geometry">
            <mxPoint as="offset" />
          </mxGeometry>
        </mxCell>
        <mxCell id="xrFbDY1ulE0IEn7EpgWR-30" value="Terrain" style="swimlane;fontStyle=1;align=center;verticalAlign=top;childLayout=stackLayout;horizontal=1;startSize=26;horizontalStack=0;resizeParent=1;resizeParentMax=0;resizeLast=0;collapsible=1;marginBottom=0;fillColor=#EA6B66;" parent="1" vertex="1">
          <mxGeometry x="2405" y="3740" width="390" height="450" as="geometry" />
        </mxCell>
        <mxCell id="xrFbDY1ulE0IEn7EpgWR-31" value="- discrete_dimensions: DiscreteDimensions&#xa;- texture_setup_blocks: vector&lt;vector&lt;SDL_Texture*&gt;&gt;&#xa;- assembled_texture: vector&lt;vector&lt;Sprite&gt;&gt;&#xa;" style="text;strokeColor=none;fillColor=none;align=left;verticalAlign=top;spacingLeft=4;spacingRight=4;overflow=hidden;rotatable=0;points=[[0,0.5],[1,0.5]];portConstraint=eastwest;" parent="xrFbDY1ulE0IEn7EpgWR-30" vertex="1">
          <mxGeometry y="26" width="390" height="62" as="geometry" />
        </mxCell>
        <mxCell id="xrFbDY1ulE0IEn7EpgWR-32" value="" style="line;strokeWidth=1;fillColor=none;align=left;verticalAlign=middle;spacingTop=-1;spacingLeft=3;spacingRight=3;rotatable=0;labelPosition=right;points=[];portConstraint=eastwest;strokeColor=inherit;" parent="xrFbDY1ulE0IEn7EpgWR-30" vertex="1">
          <mxGeometry y="88" width="390" height="8" as="geometry" />
        </mxCell>
        <mxCell id="xrFbDY1ulE0IEn7EpgWR-33" value="+ Terrain()&#xa;+ Terrain(x: int, y: int, texture_setup_blocks: vector&lt;vector&lt;SDL_Texture*&gt;&gt;)&#xa;+ Terrain(x: int, y: int, texture_setup_blocks: vector&lt;vector&lt;SDL_Texture*&gt;&gt;, discrete_dimensions: DiscreteDimensions)&#xa;+ ~Terrain()&#xa;&#xa;+ setTextureBlocks(texture_setup_blocks: vector&lt;vector&lt;SDL_Texture*&gt;&gt;): bool&#xa;+ setDiscreteDimensions(discrete_dimensions: DiscreteDimensions): bool&#xa;+ setAssembledTexture(assembled_texture: vector&lt;vector&lt;Sprite&gt;&gt;): bool&#xa;+ setWidth(): bool&#xa;+ setHeight(): bool&#xa;+ setRenderCoordinates(camera_x: int, camera_y: int): bool&#xa;&#xa;+ getTextureBlocks(): vector&lt;vector&lt;SDL_Texture*&gt;&gt;&#xa;+ getDiscreteDimensions(): DiscreteDimensions&#xa;+ getAssembledTexture(): vector&lt;vector&lt;Sprite&gt;&gt;&#xa;&#xa;+ render(renderer: SDL_Renderer*, bool camera_follow)&#xa;" style="text;strokeColor=none;fillColor=none;align=left;verticalAlign=top;spacingLeft=4;spacingRight=4;overflow=hidden;rotatable=0;points=[[0,0.5],[1,0.5]];portConstraint=eastwest;whiteSpace=wrap;" parent="xrFbDY1ulE0IEn7EpgWR-30" vertex="1">
          <mxGeometry y="96" width="390" height="354" as="geometry" />
        </mxCell>
        <mxCell id="xrFbDY1ulE0IEn7EpgWR-46" value="FileHandler" style="swimlane;fontStyle=1;align=center;verticalAlign=top;childLayout=stackLayout;horizontal=1;startSize=26;horizontalStack=0;resizeParent=1;resizeParentMax=0;resizeLast=0;collapsible=1;marginBottom=0;whiteSpace=wrap;fillColor=#f8cecc;strokeColor=#000000;" parent="1" vertex="1">
          <mxGeometry x="4635" y="2776" width="490" height="444" as="geometry" />
        </mxCell>
        <mxCell id="xrFbDY1ulE0IEn7EpgWR-47" value="" style="line;strokeWidth=1;fillColor=none;align=left;verticalAlign=middle;spacingTop=-1;spacingLeft=3;spacingRight=3;rotatable=0;labelPosition=right;points=[];portConstraint=eastwest;strokeColor=inherit;" parent="xrFbDY1ulE0IEn7EpgWR-46" vertex="1">
          <mxGeometry y="26" width="490" height="8" as="geometry" />
        </mxCell>
        <mxCell id="xrFbDY1ulE0IEn7EpgWR-48" value="+ loadTexture(renderer: SDL_Renderer*, path: string): SDL_Texture*&#xa;+ parseTextFile(path: string): string&#xa;&#xa;+ parseLevelConfigPaths(): vector&lt;string&gt;&#xa;+ parseLevelDimensions(level_config_path: string): vector&lt;int&gt;&#xa;+ parseLevelWidth(level_config_path: string): int&#xa;+ parseLevelHeight(level_config_path: string): int&#xa;&#xa;+ parseFileForLoadingPaths(file_path: string): vector&lt;string&gt;&#xa;+ loadAnimation(renderer: SDL_Renderer*, file_for_animation_paths: string): Animation&#xa;+ loadSetupTextures(renderer: SDL_Renderer*, file_for_assembly_paths: string): vector&lt;vector&lt;SDL_Texture*&gt;&gt;&#xa;&#xa;+ getLinesFromFlag(content: string, flag: string): vector&lt;string&gt;&#xa;+ getFirstLineFromFlag(content: string, flag: string): string&#xa;&#xa;+ loadButton(renderer: SDL_Renderer*, x: int, y: int, prefix: string, user_actions: UserEvent): Button&#xa;&#xa;+ loadPlayer(renderer: SDL_Renderer*, level_config_path: string, animation_path: string, animation: Animation, user_actions: UserEvent):  Player&#xa;+ loadGrounds(renderer: SDL_Renderer*, level_conig_path: string): vector&lt;Ground&gt;&#xa;+ loadSinglePlatforms(renderer: SDL_Renderer*, level_config_path: string): vector&lt;SinglePlatform&gt;&#xa;+ loadMultiplePlatforms(renderer: SDL_Renderer*, level_config_path: string): vector&lt;MultiplePlatform&gt;&#xa;+ loadPlatforms(renderer: SDL_Renderer*, level_config_path: string): vector&lt;Platform&gt;" style="text;strokeColor=none;fillColor=none;align=left;verticalAlign=top;spacingLeft=4;spacingRight=4;overflow=hidden;rotatable=0;points=[[0,0.5],[1,0.5]];portConstraint=eastwest;whiteSpace=wrap;" parent="xrFbDY1ulE0IEn7EpgWR-46" vertex="1">
          <mxGeometry y="34" width="490" height="410" as="geometry" />
        </mxCell>
        <mxCell id="xrFbDY1ulE0IEn7EpgWR-49" value="Master" style="swimlane;fontStyle=1;align=center;verticalAlign=top;childLayout=stackLayout;horizontal=1;startSize=26;horizontalStack=0;resizeParent=1;resizeParentMax=0;resizeLast=0;collapsible=1;marginBottom=0;fillColor=#f8cecc;strokeColor=#000000;" parent="1" vertex="1">
          <mxGeometry x="4470" y="3380" width="465" height="374" as="geometry" />
        </mxCell>
        <mxCell id="xrFbDY1ulE0IEn7EpgWR-50" value="+ window: SDL_Window*&#xa;+ renderer: SDL_Renderer*&#xa;&#xa;+ SCREEN_WIDTH: const int&#xa;+ SCREEN_HEIGHT: const int&#xa;&#xa;+ user_actions: UserEvent&#xa;&#xa;+ FRAME_RATE: const int&#xa;&#xa;+ state: State&#xa;&#xa;+ main_menu: MainMenu&#xa;+ gameplay: Gameplay&#xa;" style="text;strokeColor=none;fillColor=none;align=left;verticalAlign=top;spacingLeft=4;spacingRight=4;overflow=hidden;rotatable=0;points=[[0,0.5],[1,0.5]];portConstraint=eastwest;" parent="xrFbDY1ulE0IEn7EpgWR-49" vertex="1">
          <mxGeometry y="26" width="465" height="224" as="geometry" />
        </mxCell>
        <mxCell id="xrFbDY1ulE0IEn7EpgWR-51" value="" style="line;strokeWidth=1;fillColor=none;align=left;verticalAlign=middle;spacingTop=-1;spacingLeft=3;spacingRight=3;rotatable=0;labelPosition=right;points=[];portConstraint=eastwest;strokeColor=inherit;" parent="xrFbDY1ulE0IEn7EpgWR-49" vertex="1">
          <mxGeometry y="250" width="465" height="8" as="geometry" />
        </mxCell>
        <mxCell id="xrFbDY1ulE0IEn7EpgWR-52" value="+ Master(user_actions: UserEvent)&#xa;&#xa;+ initialize(): bool&#xa;+ close(): void&#xa;&#xa;+ update(): void&#xa;+ render(): void" style="text;strokeColor=none;fillColor=none;align=left;verticalAlign=top;spacingLeft=4;spacingRight=4;overflow=hidden;rotatable=0;points=[[0,0.5],[1,0.5]];portConstraint=eastwest;" parent="xrFbDY1ulE0IEn7EpgWR-49" vertex="1">
          <mxGeometry y="258" width="465" height="116" as="geometry" />
        </mxCell>
        <mxCell id="hQDoFeYBahZATQD71TL4-30" style="edgeStyle=orthogonalEdgeStyle;rounded=0;orthogonalLoop=1;jettySize=auto;html=1;entryX=0.5;entryY=0;entryDx=0;entryDy=0;endArrow=none;endFill=0;dashed=1;dashPattern=12 12;startArrow=open;startFill=0;" parent="1" source="xrFbDY1ulE0IEn7EpgWR-53" target="xrFbDY1ulE0IEn7EpgWR-46" edge="1">
          <mxGeometry relative="1" as="geometry" />
        </mxCell>
        <mxCell id="rHJlb6HxjNZ4FKYGz4qk-14" value="&lt;b&gt;uses&lt;/b&gt;" style="edgeLabel;html=1;align=center;verticalAlign=middle;resizable=0;points=[];" parent="hQDoFeYBahZATQD71TL4-30" vertex="1" connectable="0">
          <mxGeometry x="-0.0758" relative="1" as="geometry">
            <mxPoint y="1" as="offset" />
          </mxGeometry>
        </mxCell>
        <mxCell id="xrFbDY1ulE0IEn7EpgWR-53" value="Utilities" style="swimlane;fontStyle=1;align=center;verticalAlign=top;childLayout=stackLayout;horizontal=1;startSize=26;horizontalStack=0;resizeParent=1;resizeParentMax=0;resizeLast=0;collapsible=1;marginBottom=0;fillColor=#f8cecc;strokeColor=#000000;" parent="1" vertex="1">
          <mxGeometry x="4730" y="2450" width="300" height="154" as="geometry" />
        </mxCell>
        <mxCell id="xrFbDY1ulE0IEn7EpgWR-54" value="" style="line;strokeWidth=1;fillColor=none;align=left;verticalAlign=middle;spacingTop=-1;spacingLeft=3;spacingRight=3;rotatable=0;labelPosition=right;points=[];portConstraint=eastwest;strokeColor=inherit;" parent="xrFbDY1ulE0IEn7EpgWR-53" vertex="1">
          <mxGeometry y="26" width="300" height="8" as="geometry" />
        </mxCell>
        <mxCell id="xrFbDY1ulE0IEn7EpgWR-55" value="+ split(arg: string, delimiter: string): vector&lt;string&gt; &#xa;&#xa;+ checkFloat(arg: string): bool&#xa;+ strToFloat(arg: string): float&#xa;&#xa;+ strToUpper(arg: string): string&#xa;+ strToLower(arg: string): string" style="text;strokeColor=none;fillColor=none;align=left;verticalAlign=top;spacingLeft=4;spacingRight=4;overflow=hidden;rotatable=0;points=[[0,0.5],[1,0.5]];portConstraint=eastwest;" parent="xrFbDY1ulE0IEn7EpgWR-53" vertex="1">
          <mxGeometry y="34" width="300" height="120" as="geometry" />
        </mxCell>
        <mxCell id="xrFbDY1ulE0IEn7EpgWR-56" value="&lt;h1 style=&quot;border-color: var(--border-color);&quot;&gt;Design update 48&amp;nbsp;&lt;font style=&quot;border-color: var(--border-color); font-size: 12px;&quot;&gt;(26/11/2023)&lt;/font&gt;&lt;/h1&gt;&lt;h1&gt;&lt;div style=&quot;border-color: var(--border-color); font-size: 12px; font-weight: 400;&quot;&gt;&lt;span style=&quot;border-color: var(--border-color);&quot;&gt;By: Jerry Vu&lt;/span&gt;&lt;/div&gt;&lt;div style=&quot;border-color: var(--border-color); font-size: 12px; font-weight: 400;&quot;&gt;&lt;br style=&quot;border-color: var(--border-color);&quot;&gt;&lt;/div&gt;&lt;div style=&quot;border-color: var(--border-color); font-size: 12px; font-weight: 400;&quot;&gt;&lt;b style=&quot;border-color: var(--border-color);&quot;&gt;Proposing file packages:&lt;/b&gt;&lt;/div&gt;&lt;div style=&quot;border-color: var(--border-color); font-size: 12px;&quot;&gt;&lt;div style=&quot;&quot;&gt;&lt;br&gt;&lt;/div&gt;&lt;/div&gt;&lt;div style=&quot;border-color: var(--border-color); font-size: 12px; font-weight: 400;&quot;&gt;&lt;b style=&quot;border-color: var(--border-color); background-color: initial;&quot;&gt;IMPLEMENTATION NOTES:&lt;/b&gt;&lt;br style=&quot;border-color: var(--border-color);&quot;&gt;&lt;/div&gt;&lt;div style=&quot;border-color: var(--border-color); font-size: 12px; font-weight: 400;&quot;&gt;&lt;ul style=&quot;border-color: var(--border-color);&quot;&gt;&lt;li style=&quot;border-color: var(--border-color);&quot;&gt;Deallocators and destructors for all the classes so far must be accounted for. I don&#39;t know if not having them would cause memory leaks - but it would definitely cause memory occupation to skyrocket.&lt;/li&gt;&lt;li style=&quot;border-color: var(--border-color);&quot;&gt;Everyone must set up SDL_ttf.h header file.&lt;/li&gt;&lt;li style=&quot;border-color: var(--border-color);&quot;&gt;All the setter functions might need some extra security.&lt;/li&gt;&lt;li style=&quot;border-color: var(--border-color);&quot;&gt;We might need to refactor using a Builder pattern and a State pattern&lt;/li&gt;&lt;/ul&gt;&lt;/div&gt;&lt;/h1&gt;&lt;div&gt;&lt;b&gt;&lt;/b&gt;&lt;/div&gt;" style="text;html=1;strokeColor=none;fillColor=none;spacing=5;spacingTop=-20;whiteSpace=wrap;overflow=hidden;rounded=0;" parent="1" vertex="1">
          <mxGeometry x="2645" y="1640" width="500" height="510" as="geometry" />
        </mxCell>
        <mxCell id="xrFbDY1ulE0IEn7EpgWR-57" value="&amp;lt;&amp;lt;enumeration&amp;gt;&amp;gt;&lt;br&gt;&lt;b&gt;Direction&lt;/b&gt;" style="swimlane;fontStyle=0;align=center;verticalAlign=top;childLayout=stackLayout;horizontal=1;startSize=40;horizontalStack=0;resizeParent=1;resizeParentMax=0;resizeLast=0;collapsible=0;marginBottom=0;html=1;fillColor=#FFCCE6;" parent="1" vertex="1">
          <mxGeometry x="1015" y="2816" width="140" height="120" as="geometry" />
        </mxCell>
        <mxCell id="xrFbDY1ulE0IEn7EpgWR-58" value="NONE&lt;br&gt;LEFT&amp;nbsp;&lt;br&gt;RIGHT&lt;br&gt;UP&lt;br&gt;DOWN" style="text;html=1;strokeColor=none;fillColor=none;align=left;verticalAlign=middle;spacingLeft=4;spacingRight=4;overflow=hidden;rotatable=0;points=[[0,0.5],[1,0.5]];portConstraint=eastwest;" parent="xrFbDY1ulE0IEn7EpgWR-57" vertex="1">
          <mxGeometry y="40" width="140" height="80" as="geometry" />
        </mxCell>
        <mxCell id="xrFbDY1ulE0IEn7EpgWR-59" value="&amp;lt;&amp;lt;structure&amp;gt;&amp;gt;&lt;br&gt;&lt;b&gt;UserEvent&lt;/b&gt;" style="swimlane;fontStyle=0;align=center;verticalAlign=top;childLayout=stackLayout;horizontal=1;startSize=40;horizontalStack=0;resizeParent=1;resizeParentMax=0;resizeLast=0;collapsible=0;marginBottom=0;html=1;fillColor=#f8cecc;strokeColor=#000000;" parent="1" vertex="1">
          <mxGeometry x="1697" y="2450" width="240" height="170" as="geometry" />
        </mxCell>
        <mxCell id="xrFbDY1ulE0IEn7EpgWR-60" value="+ key_down: bool*&lt;br&gt;+ key_up: bool*&lt;br&gt;+ current_key_states: const Uint8*&lt;br&gt;&lt;br&gt;+ mouse_down: bool*&lt;br&gt;+ mouse_up: bool*&lt;br&gt;+ mouse_x: int*&lt;br&gt;+ mouse_y: int*" style="text;html=1;strokeColor=none;fillColor=none;align=left;verticalAlign=middle;spacingLeft=4;spacingRight=4;overflow=hidden;rotatable=0;points=[[0,0.5],[1,0.5]];portConstraint=eastwest;" parent="xrFbDY1ulE0IEn7EpgWR-59" vertex="1">
          <mxGeometry y="40" width="240" height="130" as="geometry" />
        </mxCell>
        <mxCell id="xrFbDY1ulE0IEn7EpgWR-61" value="&amp;lt;&amp;lt;structure&amp;gt;&amp;gt;&lt;br&gt;&lt;b&gt;CharacterAnimation&lt;/b&gt;" style="swimlane;fontStyle=0;align=center;verticalAlign=top;childLayout=stackLayout;horizontal=1;startSize=40;horizontalStack=0;resizeParent=1;resizeParentMax=0;resizeLast=0;collapsible=0;marginBottom=0;html=1;fillColor=#dae8fc;strokeColor=#000000;" parent="1" vertex="1">
          <mxGeometry x="1520" y="3946" width="300" height="300" as="geometry" />
        </mxCell>
        <mxCell id="xrFbDY1ulE0IEn7EpgWR-62" value="+ frames_idle: vector&amp;lt;SDL_Texture*&amp;gt;&lt;br&gt;+ frames_running: vector&amp;lt;SDL_Texture*&amp;gt;&lt;br&gt;+ frames_jumping: vector&amp;lt;SDL_Texture*&amp;gt;&lt;br&gt;+ frames_falling: vector&amp;lt;SDL_Texture*&amp;gt;&lt;br&gt;+ frames_shooting_idle: vector&amp;lt;SDL_Texture*&amp;gt;&lt;br&gt;+ frames_shooting_running: vector&amp;lt;SDL_Texture*&amp;gt;&lt;br&gt;+ frames_shooting_jumping: vector&amp;lt;SDL_Texture*&amp;gt;&lt;br&gt;+ frames_shooting_falling: vector&amp;lt;SDL_Texture*&amp;gt;&lt;br&gt;&lt;br&gt;+ current_frame_idle: int&lt;br&gt;+ current_frame_running: int&lt;br&gt;+ current_frame_jumping: int&lt;br&gt;+ current_frame_falling: int&lt;br&gt;+ current_frame_shooting_idle: int&lt;br&gt;+ current_frame_shooting_running: int&lt;br&gt;+ current_frame_shooting_jumping: int&lt;br&gt;+ current_frame_shooting_falling: int" style="text;html=1;strokeColor=none;fillColor=none;align=left;verticalAlign=middle;spacingLeft=4;spacingRight=4;overflow=hidden;rotatable=0;points=[[0,0.5],[1,0.5]];portConstraint=eastwest;" parent="xrFbDY1ulE0IEn7EpgWR-61" vertex="1">
          <mxGeometry y="40" width="300" height="260" as="geometry" />
        </mxCell>
        <mxCell id="xrFbDY1ulE0IEn7EpgWR-63" value="&amp;lt;&amp;lt;structure&amp;gt;&amp;gt;&lt;br&gt;&lt;b&gt;Collision&lt;/b&gt;" style="swimlane;fontStyle=0;align=center;verticalAlign=top;childLayout=stackLayout;horizontal=1;startSize=40;horizontalStack=0;resizeParent=1;resizeParentMax=0;resizeLast=0;collapsible=0;marginBottom=0;html=1;fillColor=#FFCCE6;" parent="1" vertex="1">
          <mxGeometry x="1015" y="2950" width="140" height="120" as="geometry" />
        </mxCell>
        <mxCell id="xrFbDY1ulE0IEn7EpgWR-64" value="+ left: bool = false&lt;br&gt;+ right: bool = false&lt;br&gt;+ top: bool = false&lt;br style=&quot;border-color: var(--border-color);&quot;&gt;+ bottom: bool = false" style="text;html=1;strokeColor=none;fillColor=none;align=left;verticalAlign=middle;spacingLeft=4;spacingRight=4;overflow=hidden;rotatable=0;points=[[0,0.5],[1,0.5]];portConstraint=eastwest;" parent="xrFbDY1ulE0IEn7EpgWR-63" vertex="1">
          <mxGeometry y="40" width="140" height="80" as="geometry" />
        </mxCell>
        <mxCell id="xrFbDY1ulE0IEn7EpgWR-69" value="Platform&#xa;" style="swimlane;fontStyle=1;align=center;verticalAlign=top;childLayout=stackLayout;horizontal=1;startSize=26;horizontalStack=0;resizeParent=1;resizeParentMax=0;resizeLast=0;collapsible=1;marginBottom=0;fillColor=#EA6B66;" parent="1" vertex="1">
          <mxGeometry x="2460" y="4600" width="280" height="154" as="geometry" />
        </mxCell>
        <mxCell id="xrFbDY1ulE0IEn7EpgWR-71" value="" style="line;strokeWidth=1;fillColor=none;align=left;verticalAlign=middle;spacingTop=-1;spacingLeft=3;spacingRight=3;rotatable=0;labelPosition=right;points=[];portConstraint=eastwest;strokeColor=inherit;" parent="xrFbDY1ulE0IEn7EpgWR-69" vertex="1">
          <mxGeometry y="26" width="280" height="8" as="geometry" />
        </mxCell>
        <mxCell id="xrFbDY1ulE0IEn7EpgWR-72" value="+ Platform()&#xa;+ Platform(x: int, y: int, texture_blocks: vector&lt;vector&lt;SDL_Texture*&gt;&gt;)&#xa;+ Platform(x: int, y: int, texture_blocks: vector&lt;vector&lt;SDL_Texture*&gt;&gt;, discrete_dimensions: DiscreteDimensions)&#xa;+ ~Platform()" style="text;strokeColor=none;fillColor=none;align=left;verticalAlign=top;spacingLeft=4;spacingRight=4;overflow=hidden;rotatable=0;points=[[0,0.5],[1,0.5]];portConstraint=eastwest;whiteSpace=wrap;" parent="xrFbDY1ulE0IEn7EpgWR-69" vertex="1">
          <mxGeometry y="34" width="280" height="120" as="geometry" />
        </mxCell>
        <mxCell id="xrFbDY1ulE0IEn7EpgWR-73" value="SinglePlatform" style="swimlane;fontStyle=1;align=center;verticalAlign=top;childLayout=stackLayout;horizontal=1;startSize=26;horizontalStack=0;resizeParent=1;resizeParentMax=0;resizeLast=0;collapsible=1;marginBottom=0;fillColor=#EA6B66;" parent="1" vertex="1">
          <mxGeometry x="2210" y="5058" width="290" height="178" as="geometry" />
        </mxCell>
        <mxCell id="xrFbDY1ulE0IEn7EpgWR-75" value="" style="line;strokeWidth=1;fillColor=none;align=left;verticalAlign=middle;spacingTop=-1;spacingLeft=3;spacingRight=3;rotatable=0;labelPosition=right;points=[];portConstraint=eastwest;strokeColor=inherit;" parent="xrFbDY1ulE0IEn7EpgWR-73" vertex="1">
          <mxGeometry y="26" width="290" height="8" as="geometry" />
        </mxCell>
        <mxCell id="xrFbDY1ulE0IEn7EpgWR-76" value="+ SinglePlatform()&#xa;+ SinglePlatform(x: int, y: int, texture_blocks: vector&lt;vector&lt;SDL_Texture*&gt;&gt;)&#xa;+ SinglePlatform(x: int, y: int, texture_blocks: vector&lt;vector&lt;SDL_Texture*&gt;&gt;, discrete_dimensions: DiscreteDimensions)&#xa;+ ~SinglePlatform()&#xa;&#xa;+ setAssembledTexture(): bool&#xa;&#xa;" style="text;strokeColor=none;fillColor=none;align=left;verticalAlign=top;spacingLeft=4;spacingRight=4;overflow=hidden;rotatable=0;points=[[0,0.5],[1,0.5]];portConstraint=eastwest;whiteSpace=wrap;" parent="xrFbDY1ulE0IEn7EpgWR-73" vertex="1">
          <mxGeometry y="34" width="290" height="144" as="geometry" />
        </mxCell>
        <mxCell id="xrFbDY1ulE0IEn7EpgWR-77" value="MultiplePlatform" style="swimlane;fontStyle=1;align=center;verticalAlign=top;childLayout=stackLayout;horizontal=1;startSize=26;horizontalStack=0;resizeParent=1;resizeParentMax=0;resizeLast=0;collapsible=1;marginBottom=0;fillColor=#EA6B66;" parent="1" vertex="1">
          <mxGeometry x="2650" y="5058" width="330" height="188" as="geometry" />
        </mxCell>
        <mxCell id="xrFbDY1ulE0IEn7EpgWR-79" value="" style="line;strokeWidth=1;fillColor=none;align=left;verticalAlign=middle;spacingTop=-1;spacingLeft=3;spacingRight=3;rotatable=0;labelPosition=right;points=[];portConstraint=eastwest;strokeColor=inherit;" parent="xrFbDY1ulE0IEn7EpgWR-77" vertex="1">
          <mxGeometry y="26" width="330" height="8" as="geometry" />
        </mxCell>
        <mxCell id="xrFbDY1ulE0IEn7EpgWR-80" value="+ MultiplePlatform()&#xa;+ MultiplePlatform(x: int, y: int, texture_blocks: vector&lt;vector&lt;SDL_Texture*&gt;&gt;)&#xa;+ MultiplePlatform(x: int, y: int, texture_blocks: vector&lt;vector&lt;SDL_Texture*&gt;&gt;, discrete_dimensions: DiscreteDimensions)&#xa;+ ~MultiplePlatform()&#xa;&#xa;+ setAssembledTexture(): bool&#xa;&#xa;" style="text;strokeColor=none;fillColor=none;align=left;verticalAlign=top;spacingLeft=4;spacingRight=4;overflow=hidden;rotatable=0;points=[[0,0.5],[1,0.5]];portConstraint=eastwest;whiteSpace=wrap;" parent="xrFbDY1ulE0IEn7EpgWR-77" vertex="1">
          <mxGeometry y="34" width="330" height="154" as="geometry" />
        </mxCell>
        <mxCell id="xrFbDY1ulE0IEn7EpgWR-81" style="edgeStyle=orthogonalEdgeStyle;rounded=0;orthogonalLoop=1;jettySize=auto;html=1;exitX=0.5;exitY=0;exitDx=0;exitDy=0;entryX=0.5;entryY=1;entryDx=0;entryDy=0;endArrow=block;endFill=0;" parent="1" source="xrFbDY1ulE0IEn7EpgWR-73" target="xrFbDY1ulE0IEn7EpgWR-69" edge="1">
          <mxGeometry relative="1" as="geometry">
            <mxPoint x="2335" y="5076" as="sourcePoint" />
            <mxPoint x="2575" y="4918" as="targetPoint" />
          </mxGeometry>
        </mxCell>
        <mxCell id="xrFbDY1ulE0IEn7EpgWR-82" style="edgeStyle=orthogonalEdgeStyle;rounded=0;orthogonalLoop=1;jettySize=auto;html=1;exitX=0.5;exitY=0;exitDx=0;exitDy=0;entryX=0.501;entryY=1.002;entryDx=0;entryDy=0;entryPerimeter=0;endArrow=block;endFill=0;" parent="1" source="xrFbDY1ulE0IEn7EpgWR-77" target="xrFbDY1ulE0IEn7EpgWR-72" edge="1">
          <mxGeometry relative="1" as="geometry">
            <mxPoint x="2350" y="4978" as="sourcePoint" />
            <mxPoint x="2595" y="4918" as="targetPoint" />
          </mxGeometry>
        </mxCell>
        <mxCell id="xrFbDY1ulE0IEn7EpgWR-83" value="Obstacle" style="swimlane;fontStyle=1;align=center;verticalAlign=top;childLayout=stackLayout;horizontal=1;startSize=26;horizontalStack=0;resizeParent=1;resizeParentMax=0;resizeLast=0;collapsible=1;marginBottom=0;fillColor=#EA6B66;" parent="1" vertex="1">
          <mxGeometry x="2938" y="4606" width="370" height="200" as="geometry" />
        </mxCell>
        <mxCell id="xrFbDY1ulE0IEn7EpgWR-84" value="- inflicted_damage: int&#xa;- inflicted_slow: int" style="text;strokeColor=none;fillColor=none;align=left;verticalAlign=top;spacingLeft=4;spacingRight=4;overflow=hidden;rotatable=0;points=[[0,0.5],[1,0.5]];portConstraint=eastwest;" parent="xrFbDY1ulE0IEn7EpgWR-83" vertex="1">
          <mxGeometry y="26" width="370" height="34" as="geometry" />
        </mxCell>
        <mxCell id="xrFbDY1ulE0IEn7EpgWR-85" value="" style="line;strokeWidth=1;fillColor=none;align=left;verticalAlign=middle;spacingTop=-1;spacingLeft=3;spacingRight=3;rotatable=0;labelPosition=right;points=[];portConstraint=eastwest;strokeColor=inherit;" parent="xrFbDY1ulE0IEn7EpgWR-83" vertex="1">
          <mxGeometry y="60" width="370" height="8" as="geometry" />
        </mxCell>
        <mxCell id="xrFbDY1ulE0IEn7EpgWR-86" value="+ Obstacle()&#xa;+ Obstacle(x: int, y:int, texture:SDL_Texture*, inflicted_damage: int)&#xa;+ ~Obstacle()" style="text;strokeColor=none;fillColor=none;align=left;verticalAlign=top;spacingLeft=4;spacingRight=4;overflow=hidden;rotatable=0;points=[[0,0.5],[1,0.5]];portConstraint=eastwest;" parent="xrFbDY1ulE0IEn7EpgWR-83" vertex="1">
          <mxGeometry y="68" width="370" height="50" as="geometry" />
        </mxCell>
        <mxCell id="xrFbDY1ulE0IEn7EpgWR-87" value="+ setInflictedDamage(inflicted_damage: int): bool&#xa;+ setInflictedSlow(inflicted_slow: int): bool" style="text;strokeColor=none;fillColor=none;align=left;verticalAlign=top;spacingLeft=4;spacingRight=4;overflow=hidden;rotatable=0;points=[[0,0.5],[1,0.5]];portConstraint=eastwest;" parent="xrFbDY1ulE0IEn7EpgWR-83" vertex="1">
          <mxGeometry y="118" width="370" height="42" as="geometry" />
        </mxCell>
        <mxCell id="xrFbDY1ulE0IEn7EpgWR-88" value="+ getInflictedDamage(): int&#xa;+ getInflictedSlow(): int" style="text;strokeColor=none;fillColor=none;align=left;verticalAlign=top;spacingLeft=4;spacingRight=4;overflow=hidden;rotatable=0;points=[[0,0.5],[1,0.5]];portConstraint=eastwest;" parent="xrFbDY1ulE0IEn7EpgWR-83" vertex="1">
          <mxGeometry y="160" width="370" height="40" as="geometry" />
        </mxCell>
        <mxCell id="xrFbDY1ulE0IEn7EpgWR-90" value="Ground" style="swimlane;fontStyle=1;align=center;verticalAlign=top;childLayout=stackLayout;horizontal=1;startSize=26;horizontalStack=0;resizeParent=1;resizeParentMax=0;resizeLast=0;collapsible=1;marginBottom=0;whiteSpace=wrap;fillColor=#EA6B66;" parent="1" vertex="1">
          <mxGeometry x="1968" y="4600" width="330" height="180" as="geometry" />
        </mxCell>
        <mxCell id="xrFbDY1ulE0IEn7EpgWR-91" value="" style="line;strokeWidth=1;fillColor=none;align=left;verticalAlign=middle;spacingTop=-1;spacingLeft=3;spacingRight=3;rotatable=0;labelPosition=right;points=[];portConstraint=eastwest;strokeColor=inherit;" parent="xrFbDY1ulE0IEn7EpgWR-90" vertex="1">
          <mxGeometry y="26" width="330" height="8" as="geometry" />
        </mxCell>
        <mxCell id="xrFbDY1ulE0IEn7EpgWR-92" value="+ Ground()&#xa;+ Ground(x: int, y: int, texture_blocks: vector&lt;vector&lt;SDL_Texture*&gt;&gt;)&#xa;+ Ground(x: int, y: int, texture_blocks: vector&lt;vector&lt;SDL_Texture*&gt;&gt;, discrete_dimensions: DiscreteDimensions)&#xa;+ ~Ground()&#xa;&#xa;+ setAssembledTexture(): bool" style="text;strokeColor=none;fillColor=none;align=left;verticalAlign=top;spacingLeft=4;spacingRight=4;overflow=hidden;rotatable=0;points=[[0,0.5],[1,0.5]];portConstraint=eastwest;whiteSpace=wrap;" parent="xrFbDY1ulE0IEn7EpgWR-90" vertex="1">
          <mxGeometry y="34" width="330" height="146" as="geometry" />
        </mxCell>
        <mxCell id="xrFbDY1ulE0IEn7EpgWR-93" value="&amp;lt;&amp;lt;structure&amp;gt;&amp;gt;&lt;br&gt;&lt;b&gt;Movement&lt;/b&gt;" style="swimlane;fontStyle=0;align=center;verticalAlign=top;childLayout=stackLayout;horizontal=1;startSize=40;horizontalStack=0;resizeParent=1;resizeParentMax=0;resizeLast=0;collapsible=0;marginBottom=0;html=1;fillColor=#FFCCE6;" parent="1" vertex="1">
          <mxGeometry x="975" y="3225" width="210" height="170" as="geometry" />
        </mxCell>
        <mxCell id="xrFbDY1ulE0IEn7EpgWR-94" value="+ spawn_x: int = 0&lt;br&gt;+ spawn_y: int = 0&lt;br&gt;&lt;br&gt;+x_max_displacement: int = 0&lt;br&gt;+y_max_displacement: int = 0&lt;br&gt;&lt;br&gt;+x_direction_velocity: int = 0&lt;br&gt;+y_direction_velocity:int = 0" style="text;html=1;strokeColor=none;fillColor=none;align=left;verticalAlign=middle;spacingLeft=4;spacingRight=4;overflow=hidden;rotatable=0;points=[[0,0.5],[1,0.5]];portConstraint=eastwest;" parent="xrFbDY1ulE0IEn7EpgWR-93" vertex="1">
          <mxGeometry y="40" width="210" height="130" as="geometry" />
        </mxCell>
        <mxCell id="xrFbDY1ulE0IEn7EpgWR-95" style="edgeStyle=orthogonalEdgeStyle;rounded=0;orthogonalLoop=1;jettySize=auto;html=1;endArrow=none;endFill=0;dashed=1;exitX=0;exitY=0.5;exitDx=0;exitDy=0;" parent="1" source="hQDoFeYBahZATQD71TL4-9" target="xrFbDY1ulE0IEn7EpgWR-93" edge="1">
          <mxGeometry relative="1" as="geometry">
            <mxPoint x="1619.0000000000005" y="3282" as="sourcePoint" />
            <mxPoint x="1180" y="2680" as="targetPoint" />
            <Array as="points" />
          </mxGeometry>
        </mxCell>
        <mxCell id="xrFbDY1ulE0IEn7EpgWR-96" value="&amp;lt;&amp;lt;structure&amp;gt;&amp;gt;&lt;br&gt;&lt;b&gt;Damage&lt;/b&gt;" style="swimlane;fontStyle=0;align=center;verticalAlign=top;childLayout=stackLayout;horizontal=1;startSize=40;horizontalStack=0;resizeParent=1;resizeParentMax=0;resizeLast=0;collapsible=0;marginBottom=0;html=1;fillColor=#FFCCE6;" parent="1" vertex="1">
          <mxGeometry x="980" y="3100" width="210" height="90" as="geometry" />
        </mxCell>
        <mxCell id="xrFbDY1ulE0IEn7EpgWR-97" value="+ collision: int = 0&lt;br&gt;+ attack: int = 0&lt;br&gt;+ self_destruct: int = 0" style="text;html=1;strokeColor=none;fillColor=none;align=left;verticalAlign=middle;spacingLeft=4;spacingRight=4;overflow=hidden;rotatable=0;points=[[0,0.5],[1,0.5]];portConstraint=eastwest;" parent="xrFbDY1ulE0IEn7EpgWR-96" vertex="1">
          <mxGeometry y="40" width="210" height="50" as="geometry" />
        </mxCell>
        <mxCell id="hQDoFeYBahZATQD71TL4-23" style="edgeStyle=orthogonalEdgeStyle;rounded=0;orthogonalLoop=1;jettySize=auto;html=1;entryX=0.5;entryY=1;entryDx=0;entryDy=0;entryPerimeter=0;endArrow=none;endFill=0;dashed=1;" parent="1" source="xrFbDY1ulE0IEn7EpgWR-99" target="hQDoFeYBahZATQD71TL4-22" edge="1">
          <mxGeometry relative="1" as="geometry" />
        </mxCell>
        <mxCell id="xrFbDY1ulE0IEn7EpgWR-99" value="&amp;lt;&amp;lt;structure&amp;gt;&amp;gt;&lt;br&gt;&lt;b&gt;DiscreteDimensions&lt;/b&gt;" style="swimlane;fontStyle=0;align=center;verticalAlign=top;childLayout=stackLayout;horizontal=1;startSize=40;horizontalStack=0;resizeParent=1;resizeParentMax=0;resizeLast=0;collapsible=0;marginBottom=0;html=1;fillColor=#EA6B66;" parent="1" vertex="1">
          <mxGeometry x="2950" y="3880" width="210" height="80" as="geometry" />
        </mxCell>
        <mxCell id="xrFbDY1ulE0IEn7EpgWR-100" value="+ width_by_units: int&lt;br&gt;+ height_by_units: int" style="text;html=1;strokeColor=none;fillColor=none;align=left;verticalAlign=middle;spacingLeft=4;spacingRight=4;overflow=hidden;rotatable=0;points=[[0,0.5],[1,0.5]];portConstraint=eastwest;" parent="xrFbDY1ulE0IEn7EpgWR-99" vertex="1">
          <mxGeometry y="40" width="210" height="40" as="geometry" />
        </mxCell>
        <mxCell id="_eumr9OaMfdWc7wBKZ6G-17" style="edgeStyle=orthogonalEdgeStyle;rounded=0;orthogonalLoop=1;jettySize=auto;html=1;exitX=0.5;exitY=0;exitDx=0;exitDy=0;entryX=0.5;entryY=1;entryDx=0;entryDy=0;endArrow=block;endFill=0;" parent="1" source="_eumr9OaMfdWc7wBKZ6G-13" target="_eumr9OaMfdWc7wBKZ6G-1" edge="1">
          <mxGeometry relative="1" as="geometry" />
        </mxCell>
        <mxCell id="_eumr9OaMfdWc7wBKZ6G-21" style="edgeStyle=orthogonalEdgeStyle;rounded=0;orthogonalLoop=1;jettySize=auto;html=1;endArrow=block;endFill=0;" parent="1" source="_eumr9OaMfdWc7wBKZ6G-18" target="_eumr9OaMfdWc7wBKZ6G-1" edge="1">
          <mxGeometry relative="1" as="geometry" />
        </mxCell>
        <mxCell id="_eumr9OaMfdWc7wBKZ6G-1" value="Projectile" style="swimlane;fontStyle=1;align=center;verticalAlign=top;childLayout=stackLayout;horizontal=1;startSize=26;horizontalStack=0;resizeParent=1;resizeParentMax=0;resizeLast=0;collapsible=1;marginBottom=0;fillColor=#99FFFF;" parent="1" vertex="1">
          <mxGeometry x="-140" y="3730" width="350" height="326" as="geometry" />
        </mxCell>
        <mxCell id="_eumr9OaMfdWc7wBKZ6G-22" value="- damage: int&#xa;- velocity: int&#xa;- travel_direction: Direction" style="text;strokeColor=none;fillColor=none;align=left;verticalAlign=top;spacingLeft=4;spacingRight=4;overflow=hidden;rotatable=0;points=[[0,0.5],[1,0.5]];portConstraint=eastwest;whiteSpace=wrap;fontStyle=0" parent="_eumr9OaMfdWc7wBKZ6G-1" vertex="1">
          <mxGeometry y="26" width="350" height="58" as="geometry" />
        </mxCell>
        <mxCell id="_eumr9OaMfdWc7wBKZ6G-3" value="" style="line;strokeWidth=1;fillColor=none;align=left;verticalAlign=middle;spacingTop=-1;spacingLeft=3;spacingRight=3;rotatable=0;labelPosition=right;points=[];portConstraint=eastwest;strokeColor=inherit;" parent="_eumr9OaMfdWc7wBKZ6G-1" vertex="1">
          <mxGeometry y="84" width="350" height="8" as="geometry" />
        </mxCell>
        <mxCell id="_eumr9OaMfdWc7wBKZ6G-4" value="+ Projectile()&#xa;+ Projectile(x: int, y: int, texture: SDL_Texture*)&#xa;+ Projectile(x: int, y: int, texture: SDL_Texture*, travel_direction: Direction)&#xa;+ ~Projectile()&#xa;&#xa;+ setCollisionDamage(damage: int): bool&#xa;+ setProjectileVelocity(velocity: int): bool&#xa;+ setTravelDirection(travel_direction: Direction): bool&#xa;&#xa;+ getCollisionDamage(): int&#xa;+ getProjectileVelocity(): int&#xa;+ getTravelDirection(): Direction&#xa;&#xa;+ update()" style="text;strokeColor=none;fillColor=none;align=left;verticalAlign=top;spacingLeft=4;spacingRight=4;overflow=hidden;rotatable=0;points=[[0,0.5],[1,0.5]];portConstraint=eastwest;whiteSpace=wrap;fontStyle=0" parent="_eumr9OaMfdWc7wBKZ6G-1" vertex="1">
          <mxGeometry y="92" width="350" height="234" as="geometry" />
        </mxCell>
        <mxCell id="_eumr9OaMfdWc7wBKZ6G-13" value="LaserBeam" style="swimlane;fontStyle=1;align=center;verticalAlign=top;childLayout=stackLayout;horizontal=1;startSize=26;horizontalStack=0;resizeParent=1;resizeParentMax=0;resizeLast=0;collapsible=1;marginBottom=0;fillColor=#99FFFF;" parent="1" vertex="1">
          <mxGeometry x="-350" y="4260" width="350" height="124" as="geometry" />
        </mxCell>
        <mxCell id="_eumr9OaMfdWc7wBKZ6G-14" value="" style="line;strokeWidth=1;fillColor=none;align=left;verticalAlign=middle;spacingTop=-1;spacingLeft=3;spacingRight=3;rotatable=0;labelPosition=right;points=[];portConstraint=eastwest;strokeColor=inherit;" parent="_eumr9OaMfdWc7wBKZ6G-13" vertex="1">
          <mxGeometry y="26" width="350" height="8" as="geometry" />
        </mxCell>
        <mxCell id="_eumr9OaMfdWc7wBKZ6G-15" value="+ LaserBeam()&#xa;+ LaserBeam(x: int, y: int, texture: SDL_Texture*)&#xa;+ LaserBeam(x: int, y: int, texture: SDL_Texture*, travel_direction: Direction)&#xa;+ ~LaserBeam()&#xa;&#xa;" style="text;strokeColor=none;fillColor=none;align=left;verticalAlign=top;spacingLeft=4;spacingRight=4;overflow=hidden;rotatable=0;points=[[0,0.5],[1,0.5]];portConstraint=eastwest;whiteSpace=wrap;fontStyle=0" parent="_eumr9OaMfdWc7wBKZ6G-13" vertex="1">
          <mxGeometry y="34" width="350" height="90" as="geometry" />
        </mxCell>
        <mxCell id="_eumr9OaMfdWc7wBKZ6G-18" value="FiftyCalibre" style="swimlane;fontStyle=1;align=center;verticalAlign=top;childLayout=stackLayout;horizontal=1;startSize=26;horizontalStack=0;resizeParent=1;resizeParentMax=0;resizeLast=0;collapsible=1;marginBottom=0;fillColor=#99FFFF;" parent="1" vertex="1">
          <mxGeometry x="55" y="4260" width="350" height="124" as="geometry" />
        </mxCell>
        <mxCell id="_eumr9OaMfdWc7wBKZ6G-19" value="" style="line;strokeWidth=1;fillColor=none;align=left;verticalAlign=middle;spacingTop=-1;spacingLeft=3;spacingRight=3;rotatable=0;labelPosition=right;points=[];portConstraint=eastwest;strokeColor=inherit;" parent="_eumr9OaMfdWc7wBKZ6G-18" vertex="1">
          <mxGeometry y="26" width="350" height="8" as="geometry" />
        </mxCell>
        <mxCell id="_eumr9OaMfdWc7wBKZ6G-20" value="+ FiftyCalibre()&#xa;+ FiftyCalibre(x: int, y: int, texture: SDL_Texture*)&#xa;+ FiftyCalibre(x: int, y: int, texture: SDL_Texture*, travel_direction: Direction)&#xa;+ ~FiftyCalibre()" style="text;strokeColor=none;fillColor=none;align=left;verticalAlign=top;spacingLeft=4;spacingRight=4;overflow=hidden;rotatable=0;points=[[0,0.5],[1,0.5]];portConstraint=eastwest;whiteSpace=wrap;fontStyle=0" parent="_eumr9OaMfdWc7wBKZ6G-18" vertex="1">
          <mxGeometry y="34" width="350" height="90" as="geometry" />
        </mxCell>
        <mxCell id="LEnjLOv2VGJ0EA_hLY6k-1" value="&amp;lt;&amp;lt;enumeration&amp;gt;&amp;gt;&lt;br&gt;&lt;b&gt;State&lt;/b&gt;" style="swimlane;fontStyle=0;align=center;verticalAlign=top;childLayout=stackLayout;horizontal=1;startSize=40;horizontalStack=0;resizeParent=1;resizeParentMax=0;resizeLast=0;collapsible=0;marginBottom=0;html=1;fillColor=#f8cecc;strokeColor=#000000;" parent="1" vertex="1">
          <mxGeometry x="4220" y="3607" width="140" height="120" as="geometry" />
        </mxCell>
        <mxCell id="LEnjLOv2VGJ0EA_hLY6k-2" value="MAIN_MENU&lt;br&gt;GAMEPLAY&lt;br&gt;PAUSE&lt;br&gt;QUIT" style="text;html=1;strokeColor=none;fillColor=none;align=left;verticalAlign=middle;spacingLeft=4;spacingRight=4;overflow=hidden;rotatable=0;points=[[0,0.5],[1,0.5]];portConstraint=eastwest;" parent="LEnjLOv2VGJ0EA_hLY6k-1" vertex="1">
          <mxGeometry y="40" width="140" height="80" as="geometry" />
        </mxCell>
        <mxCell id="LEnjLOv2VGJ0EA_hLY6k-12" value="&lt;b style=&quot;font-size: 150px;&quot;&gt;&lt;font style=&quot;font-size: 150px;&quot;&gt;Protocol 666&lt;br&gt;&lt;/font&gt;&lt;/b&gt;" style="text;html=1;strokeColor=none;fillColor=none;align=center;verticalAlign=middle;whiteSpace=wrap;rounded=0;fontSize=100;" parent="1" vertex="1">
          <mxGeometry x="1560" y="1460" width="2650" height="150" as="geometry" />
        </mxCell>
        <mxCell id="LEnjLOv2VGJ0EA_hLY6k-16" value="&lt;font style=&quot;font-size: 80px;&quot;&gt;Background processes and game logic&lt;/font&gt;" style="text;html=1;strokeColor=none;fillColor=none;align=center;verticalAlign=middle;whiteSpace=wrap;rounded=0;fontSize=16;fontStyle=1" parent="1" vertex="1">
          <mxGeometry x="4410" y="2000" width="890" height="310" as="geometry" />
        </mxCell>
        <mxCell id="LEnjLOv2VGJ0EA_hLY6k-18" value="&lt;font style=&quot;font-size: 80px;&quot;&gt;Game assets&lt;/font&gt;" style="text;html=1;strokeColor=none;fillColor=none;align=center;verticalAlign=middle;whiteSpace=wrap;rounded=0;fontSize=16;fontStyle=1" parent="1" vertex="1">
          <mxGeometry x="740" y="2070" width="910" height="170" as="geometry" />
        </mxCell>
        <mxCell id="rHJlb6HxjNZ4FKYGz4qk-7" style="edgeStyle=orthogonalEdgeStyle;rounded=0;orthogonalLoop=1;jettySize=auto;html=1;entryX=0;entryY=0.5;entryDx=0;entryDy=0;endArrow=none;endFill=0;startArrow=diamond;startFill=0;" parent="1" source="LEnjLOv2VGJ0EA_hLY6k-29" target="LEnjLOv2VGJ0EA_hLY6k-38" edge="1">
          <mxGeometry relative="1" as="geometry" />
        </mxCell>
        <mxCell id="rHJlb6HxjNZ4FKYGz4qk-8" value="1" style="edgeLabel;html=1;align=center;verticalAlign=middle;resizable=0;points=[];" parent="rHJlb6HxjNZ4FKYGz4qk-7" vertex="1" connectable="0">
          <mxGeometry x="0.8688" relative="1" as="geometry">
            <mxPoint as="offset" />
          </mxGeometry>
        </mxCell>
        <mxCell id="rHJlb6HxjNZ4FKYGz4qk-9" value="1" style="edgeLabel;html=1;align=center;verticalAlign=middle;resizable=0;points=[];" parent="rHJlb6HxjNZ4FKYGz4qk-7" vertex="1" connectable="0">
          <mxGeometry x="-0.8875" relative="1" as="geometry">
            <mxPoint as="offset" />
          </mxGeometry>
        </mxCell>
        <mxCell id="LEnjLOv2VGJ0EA_hLY6k-29" value="Button" style="swimlane;fontStyle=1;align=center;verticalAlign=top;childLayout=stackLayout;horizontal=1;startSize=26;horizontalStack=0;resizeParent=1;resizeParentMax=0;resizeLast=0;collapsible=1;marginBottom=0;fillColor=#ffe6cc;strokeColor=#000000;" parent="1" vertex="1">
          <mxGeometry x="2300" y="2900" width="280" height="340" as="geometry" />
        </mxCell>
        <mxCell id="LEnjLOv2VGJ0EA_hLY6k-30" value="- appears: bool&#xa;- hovering: bool&#xa;- pressed: bool&#xa;&#xa;- animation: ButtonAnimation&#xa;&#xa;- user_actions: UserEvent" style="text;strokeColor=none;fillColor=none;align=left;verticalAlign=top;spacingLeft=4;spacingRight=4;overflow=hidden;rotatable=0;points=[[0,0.5],[1,0.5]];portConstraint=eastwest;" parent="LEnjLOv2VGJ0EA_hLY6k-29" vertex="1">
          <mxGeometry y="26" width="280" height="116" as="geometry" />
        </mxCell>
        <mxCell id="LEnjLOv2VGJ0EA_hLY6k-31" value="" style="line;strokeWidth=1;fillColor=none;align=left;verticalAlign=middle;spacingTop=-1;spacingLeft=3;spacingRight=3;rotatable=0;labelPosition=right;points=[];portConstraint=eastwest;strokeColor=inherit;" parent="LEnjLOv2VGJ0EA_hLY6k-29" vertex="1">
          <mxGeometry y="142" width="280" height="8" as="geometry" />
        </mxCell>
        <mxCell id="LEnjLOv2VGJ0EA_hLY6k-32" value="+ Button()&#xa;+ Button(x: int, y: int, animation: ButtonAnimation, user_actions: UserEvent)&#xa;+ ~Button()&#xa;&#xa;+ unpress(): bool&#xa;+ isPressed(): bool&#xa;+ hide(): bool&#xa;+ appear(): bool&#xa;+ hover(): bool&#xa;&#xa;+ update(): bool" style="text;strokeColor=none;fillColor=none;align=left;verticalAlign=top;spacingLeft=4;spacingRight=4;overflow=hidden;rotatable=0;points=[[0,0.5],[1,0.5]];portConstraint=eastwest;whiteSpace=wrap;" parent="LEnjLOv2VGJ0EA_hLY6k-29" vertex="1">
          <mxGeometry y="150" width="280" height="190" as="geometry" />
        </mxCell>
        <mxCell id="LEnjLOv2VGJ0EA_hLY6k-37" value="&amp;lt;&amp;lt;structure&amp;gt;&amp;gt;&lt;br&gt;&lt;b&gt;ButtonAnimation&lt;/b&gt;" style="swimlane;fontStyle=0;align=center;verticalAlign=top;childLayout=stackLayout;horizontal=1;startSize=40;horizontalStack=0;resizeParent=1;resizeParentMax=0;resizeLast=0;collapsible=0;marginBottom=0;html=1;fillColor=#ffe6cc;strokeColor=#000000;" parent="1" vertex="1">
          <mxGeometry x="3010" y="2990" width="170" height="120" as="geometry" />
        </mxCell>
        <mxCell id="LEnjLOv2VGJ0EA_hLY6k-38" value="+ idle: SDL_Texture*&lt;br&gt;+ hovering: SDL_Texture*&lt;br&gt;+ pressed: SDL_Texture*&lt;br&gt;" style="text;html=1;strokeColor=none;fillColor=none;align=left;verticalAlign=middle;spacingLeft=4;spacingRight=4;overflow=hidden;rotatable=0;points=[[0,0.5],[1,0.5]];portConstraint=eastwest;" parent="LEnjLOv2VGJ0EA_hLY6k-37" vertex="1">
          <mxGeometry y="40" width="170" height="80" as="geometry" />
        </mxCell>
        <mxCell id="kDnEMcJuoY4RCUkBWO26-5" value="Gameplay" style="swimlane;fontStyle=1;align=center;verticalAlign=top;childLayout=stackLayout;horizontal=1;startSize=26;horizontalStack=0;resizeParent=1;resizeParentMax=0;resizeLast=0;collapsible=1;marginBottom=0;fillColor=#f8cecc;strokeColor=#000000;" parent="1" vertex="1">
          <mxGeometry x="5060" y="3400" width="465" height="566" as="geometry" />
        </mxCell>
        <mxCell id="kDnEMcJuoY4RCUkBWO26-6" value="+ window: SDL_Window*&#xa;+ renderer: SDL_Renderer*&#xa;&#xa;+ screen_width: int&#xa;+ screen_height: int&#xa;&#xa;+ user_actions: UserEvent&#xa;&#xa;+ current_level: int&#xa;&#xa;+ level_width: int&#xa;+ level_height: int&#xa;&#xa;+ camera: SDL_Rect&#xa;&#xa;+ level_config_paths: vector&lt;string&gt;&#xa;&#xa;+ player: Player&#xa;+ grounds: vector&lt;Ground&gt;&#xa;+ platforms: vector&lt;Platform&gt;&#xa;" style="text;strokeColor=none;fillColor=none;align=left;verticalAlign=top;spacingLeft=4;spacingRight=4;overflow=hidden;rotatable=0;points=[[0,0.5],[1,0.5]];portConstraint=eastwest;" parent="kDnEMcJuoY4RCUkBWO26-5" vertex="1">
          <mxGeometry y="26" width="465" height="304" as="geometry" />
        </mxCell>
        <mxCell id="kDnEMcJuoY4RCUkBWO26-7" value="" style="line;strokeWidth=1;fillColor=none;align=left;verticalAlign=middle;spacingTop=-1;spacingLeft=3;spacingRight=3;rotatable=0;labelPosition=right;points=[];portConstraint=eastwest;strokeColor=inherit;" parent="kDnEMcJuoY4RCUkBWO26-5" vertex="1">
          <mxGeometry y="330" width="465" height="8" as="geometry" />
        </mxCell>
        <mxCell id="kDnEMcJuoY4RCUkBWO26-8" value="+ Gameplay()&#xa;+ Gameplay(user_actions: UserEvent, screen_width: int, screen_height: int, renderer: SDL_Renderer*)&#xa;&#xa;+ stateQuery(): int&#xa;&#xa;+ loadAllGameplayAssets(): bool&#xa;+ loadCurrentLevel(): bool&#xa;&#xa;+ updateCamera(): void&#xa;+ updateRenderCoordinates(): void&#xa;+ updateCollisions(): void&#xa;&#xa;+ update(): void&#xa;+ render(): void" style="text;strokeColor=none;fillColor=none;align=left;verticalAlign=top;spacingLeft=4;spacingRight=4;overflow=hidden;rotatable=0;points=[[0,0.5],[1,0.5]];portConstraint=eastwest;whiteSpace=wrap;" parent="kDnEMcJuoY4RCUkBWO26-5" vertex="1">
          <mxGeometry y="338" width="465" height="228" as="geometry" />
        </mxCell>
        <mxCell id="hQDoFeYBahZATQD71TL4-5" style="edgeStyle=orthogonalEdgeStyle;rounded=0;orthogonalLoop=1;jettySize=auto;html=1;entryX=0.5;entryY=1.007;entryDx=0;entryDy=0;entryPerimeter=0;endArrow=diamond;endFill=1;" parent="1" source="hQDoFeYBahZATQD71TL4-1" target="xrFbDY1ulE0IEn7EpgWR-52" edge="1">
          <mxGeometry relative="1" as="geometry" />
        </mxCell>
        <mxCell id="hQDoFeYBahZATQD71TL4-24" value="1" style="edgeLabel;html=1;align=center;verticalAlign=middle;resizable=0;points=[];" parent="hQDoFeYBahZATQD71TL4-5" vertex="1" connectable="0">
          <mxGeometry x="-0.6985" relative="1" as="geometry">
            <mxPoint x="8" y="3" as="offset" />
          </mxGeometry>
        </mxCell>
        <mxCell id="hQDoFeYBahZATQD71TL4-25" value="1" style="edgeLabel;html=1;align=center;verticalAlign=middle;resizable=0;points=[];" parent="hQDoFeYBahZATQD71TL4-5" vertex="1" connectable="0">
          <mxGeometry x="0.6457" relative="1" as="geometry">
            <mxPoint x="8" as="offset" />
          </mxGeometry>
        </mxCell>
        <mxCell id="hQDoFeYBahZATQD71TL4-41" style="edgeStyle=orthogonalEdgeStyle;rounded=0;orthogonalLoop=1;jettySize=auto;html=1;endArrow=block;endFill=0;" parent="1" source="hQDoFeYBahZATQD71TL4-36" target="hQDoFeYBahZATQD71TL4-1" edge="1">
          <mxGeometry relative="1" as="geometry" />
        </mxCell>
        <mxCell id="M9U6kO1oFIdRPmsKHz62-14" style="edgeStyle=orthogonalEdgeStyle;rounded=0;orthogonalLoop=1;jettySize=auto;html=1;entryX=0.5;entryY=0;entryDx=0;entryDy=0;endArrow=none;endFill=0;startArrow=block;startFill=0;" parent="1" source="hQDoFeYBahZATQD71TL4-1" target="M9U6kO1oFIdRPmsKHz62-6" edge="1">
          <mxGeometry relative="1" as="geometry">
            <Array as="points">
              <mxPoint x="4703" y="4680" />
              <mxPoint x="4340" y="4680" />
            </Array>
          </mxGeometry>
        </mxCell>
        <mxCell id="M9U6kO1oFIdRPmsKHz62-15" style="edgeStyle=orthogonalEdgeStyle;rounded=0;orthogonalLoop=1;jettySize=auto;html=1;endArrow=none;endFill=0;startArrow=block;startFill=0;" parent="1" source="hQDoFeYBahZATQD71TL4-1" target="M9U6kO1oFIdRPmsKHz62-1" edge="1">
          <mxGeometry relative="1" as="geometry">
            <Array as="points">
              <mxPoint x="4703" y="4680" />
              <mxPoint x="4650" y="4680" />
            </Array>
          </mxGeometry>
        </mxCell>
        <mxCell id="M9U6kO1oFIdRPmsKHz62-16" style="edgeStyle=orthogonalEdgeStyle;rounded=0;orthogonalLoop=1;jettySize=auto;html=1;entryX=0.5;entryY=0;entryDx=0;entryDy=0;endArrow=none;endFill=0;startArrow=block;startFill=0;" parent="1" source="hQDoFeYBahZATQD71TL4-1" target="M9U6kO1oFIdRPmsKHz62-10" edge="1">
          <mxGeometry relative="1" as="geometry">
            <Array as="points">
              <mxPoint x="4703" y="4680" />
              <mxPoint x="4960" y="4680" />
            </Array>
          </mxGeometry>
        </mxCell>
        <mxCell id="hQDoFeYBahZATQD71TL4-1" value="Navigation" style="swimlane;fontStyle=3;align=center;verticalAlign=top;childLayout=stackLayout;horizontal=1;startSize=26;horizontalStack=0;resizeParent=1;resizeParentMax=0;resizeLast=0;collapsible=1;marginBottom=0;labelBackgroundColor=none;fillColor=#f8cecc;strokeColor=#000000;" parent="1" vertex="1">
          <mxGeometry x="4470" y="3860" width="465" height="248" as="geometry" />
        </mxCell>
        <mxCell id="hQDoFeYBahZATQD71TL4-2" value="+ window: SDL_Window*&#xa;+ renderer: SDL_Renderer*&#xa;&#xa;+ screen_width: int&#xa;+ screen_height: int&#xa;&#xa;+ user_actions: UserEvent&#xa;&#xa;" style="text;strokeColor=none;fillColor=none;align=left;verticalAlign=top;spacingLeft=4;spacingRight=4;overflow=hidden;rotatable=0;points=[[0,0.5],[1,0.5]];portConstraint=eastwest;" parent="hQDoFeYBahZATQD71TL4-1" vertex="1">
          <mxGeometry y="26" width="465" height="114" as="geometry" />
        </mxCell>
        <mxCell id="hQDoFeYBahZATQD71TL4-3" value="" style="line;strokeWidth=1;fillColor=none;align=left;verticalAlign=middle;spacingTop=-1;spacingLeft=3;spacingRight=3;rotatable=0;labelPosition=right;points=[];portConstraint=eastwest;strokeColor=inherit;" parent="hQDoFeYBahZATQD71TL4-1" vertex="1">
          <mxGeometry y="140" width="465" height="8" as="geometry" />
        </mxCell>
        <mxCell id="hQDoFeYBahZATQD71TL4-4" value="+ Navigation()&#xa;+ Navigation(user_actions: UserEvent, screen_width: int, screen_height: int, renderer: SDL_Renderer*)&#xa;&#xa;+ update() = 0: void&#xa;+ render() = 0: void" style="text;strokeColor=none;fillColor=none;align=left;verticalAlign=top;spacingLeft=4;spacingRight=4;overflow=hidden;rotatable=0;points=[[0,0.5],[1,0.5]];portConstraint=eastwest;whiteSpace=wrap;" parent="hQDoFeYBahZATQD71TL4-1" vertex="1">
          <mxGeometry y="148" width="465" height="100" as="geometry" />
        </mxCell>
        <mxCell id="hQDoFeYBahZATQD71TL4-7" style="edgeStyle=orthogonalEdgeStyle;rounded=0;orthogonalLoop=1;jettySize=auto;html=1;exitX=0.5;exitY=1;exitDx=0;exitDy=0;exitPerimeter=0;entryX=0.5;entryY=0;entryDx=0;entryDy=0;dashed=1;endArrow=none;endFill=0;" parent="1" source="hQDoFeYBahZATQD71TL4-6" target="LEnjLOv2VGJ0EA_hLY6k-1" edge="1">
          <mxGeometry relative="1" as="geometry" />
        </mxCell>
        <mxCell id="hQDoFeYBahZATQD71TL4-6" value="&lt;b&gt;NOTE&lt;/b&gt;: in the header file &quot;Master.h&quot;" style="shape=note;whiteSpace=wrap;html=1;backgroundOutline=1;darkOpacity=0.05;" parent="1" vertex="1">
          <mxGeometry x="4250" y="3453" width="80" height="100" as="geometry" />
        </mxCell>
        <mxCell id="hQDoFeYBahZATQD71TL4-9" value="&lt;b&gt;NOTE&lt;/b&gt;: in the header file &quot;Sprite.h&quot;" style="shape=note;whiteSpace=wrap;html=1;backgroundOutline=1;darkOpacity=0.05;" parent="1" vertex="1">
          <mxGeometry x="1370" y="3260" width="80" height="100" as="geometry" />
        </mxCell>
        <mxCell id="hQDoFeYBahZATQD71TL4-12" style="edgeStyle=orthogonalEdgeStyle;rounded=0;orthogonalLoop=1;jettySize=auto;html=1;entryX=0;entryY=0.5;entryDx=0;entryDy=0;entryPerimeter=0;endArrow=none;endFill=0;dashed=1;" parent="1" source="xrFbDY1ulE0IEn7EpgWR-97" target="hQDoFeYBahZATQD71TL4-9" edge="1">
          <mxGeometry relative="1" as="geometry">
            <Array as="points">
              <mxPoint x="1310" y="3159" />
              <mxPoint x="1310" y="3310" />
            </Array>
          </mxGeometry>
        </mxCell>
        <mxCell id="hQDoFeYBahZATQD71TL4-14" style="edgeStyle=orthogonalEdgeStyle;rounded=0;orthogonalLoop=1;jettySize=auto;html=1;entryX=0.5;entryY=0;entryDx=0;entryDy=0;entryPerimeter=0;dashed=1;startArrow=none;startFill=0;endArrow=none;endFill=0;" parent="1" source="xrFbDY1ulE0IEn7EpgWR-64" target="hQDoFeYBahZATQD71TL4-9" edge="1">
          <mxGeometry relative="1" as="geometry" />
        </mxCell>
        <mxCell id="hQDoFeYBahZATQD71TL4-16" value="&lt;b&gt;NOTE&lt;/b&gt;: in the header file &quot;LIBDECLARATIONS.h&quot;" style="shape=note;whiteSpace=wrap;html=1;backgroundOutline=1;darkOpacity=0.05;" parent="1" vertex="1">
          <mxGeometry x="2040" y="2505" width="140" height="100" as="geometry" />
        </mxCell>
        <mxCell id="hQDoFeYBahZATQD71TL4-17" style="edgeStyle=orthogonalEdgeStyle;rounded=0;orthogonalLoop=1;jettySize=auto;html=1;entryX=0;entryY=0.5;entryDx=0;entryDy=0;entryPerimeter=0;endArrow=none;endFill=0;dashed=1;" parent="1" source="xrFbDY1ulE0IEn7EpgWR-60" target="hQDoFeYBahZATQD71TL4-16" edge="1">
          <mxGeometry relative="1" as="geometry" />
        </mxCell>
        <mxCell id="hQDoFeYBahZATQD71TL4-20" value="&lt;b&gt;NOTE&lt;/b&gt;: in the header file &quot;Button.h&quot;" style="shape=note;whiteSpace=wrap;html=1;backgroundOutline=1;darkOpacity=0.05;" parent="1" vertex="1">
          <mxGeometry x="2795" y="2890" width="110" height="105" as="geometry" />
        </mxCell>
        <mxCell id="hQDoFeYBahZATQD71TL4-21" style="edgeStyle=orthogonalEdgeStyle;rounded=0;orthogonalLoop=1;jettySize=auto;html=1;entryX=0;entryY=0;entryDx=110;entryDy=67.5;entryPerimeter=0;endArrow=none;endFill=0;dashed=1;exitX=0.5;exitY=0;exitDx=0;exitDy=0;" parent="1" source="LEnjLOv2VGJ0EA_hLY6k-37" target="hQDoFeYBahZATQD71TL4-20" edge="1">
          <mxGeometry relative="1" as="geometry">
            <Array as="points">
              <mxPoint x="3095" y="2950" />
              <mxPoint x="2905" y="2950" />
            </Array>
          </mxGeometry>
        </mxCell>
        <mxCell id="hQDoFeYBahZATQD71TL4-22" value="&lt;b&gt;NOTE&lt;/b&gt;: in the header file &quot;Terrain.h&quot;" style="shape=note;whiteSpace=wrap;html=1;backgroundOutline=1;darkOpacity=0.05;" parent="1" vertex="1">
          <mxGeometry x="3000" y="3720" width="110" height="105" as="geometry" />
        </mxCell>
        <mxCell id="hQDoFeYBahZATQD71TL4-26" style="edgeStyle=orthogonalEdgeStyle;rounded=0;orthogonalLoop=1;jettySize=auto;html=1;endArrow=diamond;endFill=1;" parent="1" source="kDnEMcJuoY4RCUkBWO26-6" target="xrFbDY1ulE0IEn7EpgWR-50" edge="1">
          <mxGeometry relative="1" as="geometry">
            <Array as="points">
              <mxPoint x="4998" y="3640" />
              <mxPoint x="4998" y="3541" />
            </Array>
          </mxGeometry>
        </mxCell>
        <mxCell id="hQDoFeYBahZATQD71TL4-27" value="1" style="edgeLabel;html=1;align=center;verticalAlign=middle;resizable=0;points=[];" parent="hQDoFeYBahZATQD71TL4-26" vertex="1" connectable="0">
          <mxGeometry x="-0.814" y="-2" relative="1" as="geometry">
            <mxPoint x="11" y="-8" as="offset" />
          </mxGeometry>
        </mxCell>
        <mxCell id="hQDoFeYBahZATQD71TL4-28" value="1" style="edgeLabel;html=1;align=center;verticalAlign=middle;resizable=0;points=[];" parent="hQDoFeYBahZATQD71TL4-26" vertex="1" connectable="0">
          <mxGeometry x="-0.814" y="-2" relative="1" as="geometry">
            <mxPoint x="-89" y="-108" as="offset" />
          </mxGeometry>
        </mxCell>
        <mxCell id="hQDoFeYBahZATQD71TL4-33" style="edgeStyle=orthogonalEdgeStyle;rounded=0;orthogonalLoop=1;jettySize=auto;html=1;entryX=0.5;entryY=0;entryDx=0;entryDy=0;endArrow=none;endFill=0;dashed=1;dashPattern=12 12;startArrow=open;startFill=0;" parent="1" source="xrFbDY1ulE0IEn7EpgWR-48" target="kDnEMcJuoY4RCUkBWO26-5" edge="1">
          <mxGeometry relative="1" as="geometry" />
        </mxCell>
        <mxCell id="rHJlb6HxjNZ4FKYGz4qk-16" value="&lt;b&gt;uses&lt;/b&gt;" style="edgeLabel;html=1;align=center;verticalAlign=middle;resizable=0;points=[];" parent="hQDoFeYBahZATQD71TL4-33" vertex="1" connectable="0">
          <mxGeometry x="0.2082" y="2" relative="1" as="geometry">
            <mxPoint as="offset" />
          </mxGeometry>
        </mxCell>
        <mxCell id="hQDoFeYBahZATQD71TL4-36" value="MainMenu" style="swimlane;fontStyle=1;align=center;verticalAlign=top;childLayout=stackLayout;horizontal=1;startSize=26;horizontalStack=0;resizeParent=1;resizeParentMax=0;resizeLast=0;collapsible=1;marginBottom=0;whiteSpace=wrap;html=1;fillColor=#fff2cc;strokeColor=#000000;" parent="1" vertex="1">
          <mxGeometry x="4290" y="4190" width="280" height="376" as="geometry" />
        </mxCell>
        <mxCell id="hQDoFeYBahZATQD71TL4-37" value="+ button_play: Button&lt;br&gt;+ button_settings: Button&lt;br&gt;+ button_instructions: Button&lt;br&gt;+ button_about: Button&lt;br&gt;+ button_exit: Button&lt;br&gt;&lt;br&gt;+ page_settings: SettingsPage&lt;br&gt;+ page_instructions: InstructionsPage&lt;br&gt;+ page_about: AboutPage" style="text;strokeColor=none;fillColor=none;align=left;verticalAlign=top;spacingLeft=4;spacingRight=4;overflow=hidden;rotatable=0;points=[[0,0.5],[1,0.5]];portConstraint=eastwest;whiteSpace=wrap;html=1;" parent="hQDoFeYBahZATQD71TL4-36" vertex="1">
          <mxGeometry y="26" width="280" height="152" as="geometry" />
        </mxCell>
        <mxCell id="hQDoFeYBahZATQD71TL4-38" value="" style="line;strokeWidth=1;fillColor=none;align=left;verticalAlign=middle;spacingTop=-1;spacingLeft=3;spacingRight=3;rotatable=0;labelPosition=right;points=[];portConstraint=eastwest;strokeColor=inherit;" parent="hQDoFeYBahZATQD71TL4-36" vertex="1">
          <mxGeometry y="178" width="280" height="8" as="geometry" />
        </mxCell>
        <mxCell id="hQDoFeYBahZATQD71TL4-39" value="+ MainMenu()&lt;br&gt;+ MainMenu(user_actions: UserEvent, screen_width: int, screen_height: int, renderer: SDL_Renderer*)&lt;br&gt;&lt;br&gt;+ loadAllMainMenuAssets(): bool&lt;br&gt;&lt;br&gt;+ stateQuery(): int&lt;br&gt;+ updateButtons(): void&amp;nbsp;&lt;br&gt;+ update(): void&lt;br&gt;+ renderButtons(): void&lt;br&gt;+ render(): void" style="text;strokeColor=none;fillColor=none;align=left;verticalAlign=top;spacingLeft=4;spacingRight=4;overflow=hidden;rotatable=0;points=[[0,0.5],[1,0.5]];portConstraint=eastwest;whiteSpace=wrap;html=1;" parent="hQDoFeYBahZATQD71TL4-36" vertex="1">
          <mxGeometry y="186" width="280" height="190" as="geometry" />
        </mxCell>
        <mxCell id="hQDoFeYBahZATQD71TL4-44" style="edgeStyle=orthogonalEdgeStyle;rounded=0;orthogonalLoop=1;jettySize=auto;html=1;entryX=0;entryY=0.5;entryDx=0;entryDy=0;endArrow=none;endFill=0;dashed=1;" parent="1" source="hQDoFeYBahZATQD71TL4-43" target="hQDoFeYBahZATQD71TL4-39" edge="1">
          <mxGeometry relative="1" as="geometry" />
        </mxCell>
        <mxCell id="hQDoFeYBahZATQD71TL4-43" value="&lt;b&gt;NOTE&lt;/b&gt;: stateQuery() returns an integer&lt;br&gt;&lt;br&gt;Check the UML State Machine Diagram for more information.&amp;nbsp;&lt;br&gt;&lt;br&gt;The state pattern might be applied here." style="shape=note;whiteSpace=wrap;html=1;backgroundOutline=1;darkOpacity=0.05;" parent="1" vertex="1">
          <mxGeometry x="3870" y="4480" width="235" height="180" as="geometry" />
        </mxCell>
        <mxCell id="hQDoFeYBahZATQD71TL4-45" style="edgeStyle=orthogonalEdgeStyle;rounded=0;orthogonalLoop=1;jettySize=auto;html=1;entryX=0;entryY=0.5;entryDx=0;entryDy=0;endArrow=none;endFill=0;startArrow=open;startFill=0;dashed=1;dashPattern=12 12;" parent="1" source="xrFbDY1ulE0IEn7EpgWR-48" target="hQDoFeYBahZATQD71TL4-37" edge="1">
          <mxGeometry relative="1" as="geometry">
            <Array as="points">
              <mxPoint x="4020" y="3138" />
              <mxPoint x="4020" y="4290" />
              <mxPoint x="4290" y="4290" />
            </Array>
          </mxGeometry>
        </mxCell>
        <mxCell id="hQDoFeYBahZATQD71TL4-47" value="1" style="edgeLabel;html=1;align=center;verticalAlign=middle;resizable=0;points=[];" parent="hQDoFeYBahZATQD71TL4-45" vertex="1" connectable="0">
          <mxGeometry x="0.9745" y="4" relative="1" as="geometry">
            <mxPoint x="-11" y="-10" as="offset" />
          </mxGeometry>
        </mxCell>
        <mxCell id="rHJlb6HxjNZ4FKYGz4qk-15" value="&lt;b&gt;uses&lt;/b&gt;" style="edgeLabel;html=1;align=center;verticalAlign=middle;resizable=0;points=[];" parent="hQDoFeYBahZATQD71TL4-45" vertex="1" connectable="0">
          <mxGeometry x="-0.7517" y="-1" relative="1" as="geometry">
            <mxPoint as="offset" />
          </mxGeometry>
        </mxCell>
        <mxCell id="M9U6kO1oFIdRPmsKHz62-1" value="InstructionsPage" style="swimlane;fontStyle=1;align=center;verticalAlign=top;childLayout=stackLayout;horizontal=1;startSize=26;horizontalStack=0;resizeParent=1;resizeParentMax=0;resizeLast=0;collapsible=1;marginBottom=0;whiteSpace=wrap;html=1;fillColor=#fff2cc;strokeColor=#000000;" parent="1" vertex="1">
          <mxGeometry x="4510" y="4760" width="280" height="252" as="geometry" />
        </mxCell>
        <mxCell id="M9U6kO1oFIdRPmsKHz62-2" value="+ button_back: Button" style="text;strokeColor=none;fillColor=none;align=left;verticalAlign=top;spacingLeft=4;spacingRight=4;overflow=hidden;rotatable=0;points=[[0,0.5],[1,0.5]];portConstraint=eastwest;whiteSpace=wrap;html=1;" parent="M9U6kO1oFIdRPmsKHz62-1" vertex="1">
          <mxGeometry y="26" width="280" height="34" as="geometry" />
        </mxCell>
        <mxCell id="M9U6kO1oFIdRPmsKHz62-3" value="" style="line;strokeWidth=1;fillColor=none;align=left;verticalAlign=middle;spacingTop=-1;spacingLeft=3;spacingRight=3;rotatable=0;labelPosition=right;points=[];portConstraint=eastwest;strokeColor=inherit;" parent="M9U6kO1oFIdRPmsKHz62-1" vertex="1">
          <mxGeometry y="60" width="280" height="8" as="geometry" />
        </mxCell>
        <mxCell id="M9U6kO1oFIdRPmsKHz62-4" value="+ InstructionsPage()&lt;br&gt;+ InstructionsPage(user_actions: UserEvent, screen_width: int, screen_height: int, renderer: SDL_Renderer*)&lt;br&gt;&lt;br&gt;+ loadAllInstructionsPageAssets(): bool&lt;br&gt;&lt;br&gt;+ stateQuery(): int&lt;br style=&quot;border-color: var(--border-color);&quot;&gt;+ updateButtons(): void&amp;nbsp;&lt;br style=&quot;border-color: var(--border-color);&quot;&gt;+ update(): void&lt;br style=&quot;border-color: var(--border-color);&quot;&gt;+ renderButtons(): void&lt;br style=&quot;border-color: var(--border-color);&quot;&gt;+ render(): void" style="text;strokeColor=none;fillColor=none;align=left;verticalAlign=top;spacingLeft=4;spacingRight=4;overflow=hidden;rotatable=0;points=[[0,0.5],[1,0.5]];portConstraint=eastwest;whiteSpace=wrap;html=1;" parent="M9U6kO1oFIdRPmsKHz62-1" vertex="1">
          <mxGeometry y="68" width="280" height="184" as="geometry" />
        </mxCell>
        <mxCell id="M9U6kO1oFIdRPmsKHz62-6" value="SettingsPage" style="swimlane;fontStyle=1;align=center;verticalAlign=top;childLayout=stackLayout;horizontal=1;startSize=26;horizontalStack=0;resizeParent=1;resizeParentMax=0;resizeLast=0;collapsible=1;marginBottom=0;whiteSpace=wrap;html=1;fillColor=#fff2cc;strokeColor=#000000;" parent="1" vertex="1">
          <mxGeometry x="4200" y="4760" width="280" height="252" as="geometry" />
        </mxCell>
        <mxCell id="M9U6kO1oFIdRPmsKHz62-7" value="+ button_back: Button" style="text;strokeColor=none;fillColor=none;align=left;verticalAlign=top;spacingLeft=4;spacingRight=4;overflow=hidden;rotatable=0;points=[[0,0.5],[1,0.5]];portConstraint=eastwest;whiteSpace=wrap;html=1;" parent="M9U6kO1oFIdRPmsKHz62-6" vertex="1">
          <mxGeometry y="26" width="280" height="34" as="geometry" />
        </mxCell>
        <mxCell id="M9U6kO1oFIdRPmsKHz62-8" value="" style="line;strokeWidth=1;fillColor=none;align=left;verticalAlign=middle;spacingTop=-1;spacingLeft=3;spacingRight=3;rotatable=0;labelPosition=right;points=[];portConstraint=eastwest;strokeColor=inherit;" parent="M9U6kO1oFIdRPmsKHz62-6" vertex="1">
          <mxGeometry y="60" width="280" height="8" as="geometry" />
        </mxCell>
        <mxCell id="M9U6kO1oFIdRPmsKHz62-9" value="+ SettingsPage()&lt;br&gt;+ SettingsPage(user_actions: UserEvent, screen_width: int, screen_height: int, renderer: SDL_Renderer*)&lt;br&gt;&lt;br&gt;+ loadAllSettingsPageAssets(): bool&lt;br&gt;&lt;br&gt;+ stateQuery(): int&lt;br style=&quot;border-color: var(--border-color);&quot;&gt;+ updateButtons(): void&amp;nbsp;&lt;br style=&quot;border-color: var(--border-color);&quot;&gt;+ update(): void&lt;br style=&quot;border-color: var(--border-color);&quot;&gt;+ renderButtons(): void&lt;br style=&quot;border-color: var(--border-color);&quot;&gt;+ render(): void" style="text;strokeColor=none;fillColor=none;align=left;verticalAlign=top;spacingLeft=4;spacingRight=4;overflow=hidden;rotatable=0;points=[[0,0.5],[1,0.5]];portConstraint=eastwest;whiteSpace=wrap;html=1;" parent="M9U6kO1oFIdRPmsKHz62-6" vertex="1">
          <mxGeometry y="68" width="280" height="184" as="geometry" />
        </mxCell>
        <mxCell id="M9U6kO1oFIdRPmsKHz62-10" value="AboutPage" style="swimlane;fontStyle=1;align=center;verticalAlign=top;childLayout=stackLayout;horizontal=1;startSize=26;horizontalStack=0;resizeParent=1;resizeParentMax=0;resizeLast=0;collapsible=1;marginBottom=0;whiteSpace=wrap;html=1;fillColor=#fff2cc;strokeColor=#000000;" parent="1" vertex="1">
          <mxGeometry x="4820" y="4760" width="280" height="252" as="geometry" />
        </mxCell>
        <mxCell id="M9U6kO1oFIdRPmsKHz62-11" value="+ button_back: Button" style="text;strokeColor=none;fillColor=none;align=left;verticalAlign=top;spacingLeft=4;spacingRight=4;overflow=hidden;rotatable=0;points=[[0,0.5],[1,0.5]];portConstraint=eastwest;whiteSpace=wrap;html=1;" parent="M9U6kO1oFIdRPmsKHz62-10" vertex="1">
          <mxGeometry y="26" width="280" height="34" as="geometry" />
        </mxCell>
        <mxCell id="M9U6kO1oFIdRPmsKHz62-12" value="" style="line;strokeWidth=1;fillColor=none;align=left;verticalAlign=middle;spacingTop=-1;spacingLeft=3;spacingRight=3;rotatable=0;labelPosition=right;points=[];portConstraint=eastwest;strokeColor=inherit;" parent="M9U6kO1oFIdRPmsKHz62-10" vertex="1">
          <mxGeometry y="60" width="280" height="8" as="geometry" />
        </mxCell>
        <mxCell id="M9U6kO1oFIdRPmsKHz62-13" value="+ AboutPage()&lt;br&gt;+ AboutPage(user_actions: UserEvent, screen_width: int, screen_height: int, renderer: SDL_Renderer*)&lt;br&gt;&lt;br&gt;+ loadAllAboutPageAssets(): bool&lt;br&gt;&lt;br&gt;+ stateQuery(): int&lt;br style=&quot;border-color: var(--border-color);&quot;&gt;+ updateButtons(): void&amp;nbsp;&lt;br style=&quot;border-color: var(--border-color);&quot;&gt;+ update(): void&lt;br style=&quot;border-color: var(--border-color);&quot;&gt;+ renderButtons(): void&lt;br style=&quot;border-color: var(--border-color);&quot;&gt;+ render(): void" style="text;strokeColor=none;fillColor=none;align=left;verticalAlign=top;spacingLeft=4;spacingRight=4;overflow=hidden;rotatable=0;points=[[0,0.5],[1,0.5]];portConstraint=eastwest;whiteSpace=wrap;html=1;" parent="M9U6kO1oFIdRPmsKHz62-10" vertex="1">
          <mxGeometry y="68" width="280" height="184" as="geometry" />
        </mxCell>
        <mxCell id="X3__ifQOlJoH67yWw0tZ-9" style="edgeStyle=orthogonalEdgeStyle;rounded=0;orthogonalLoop=1;jettySize=auto;html=1;entryX=0.5;entryY=0;entryDx=0;entryDy=0;endArrow=none;endFill=0;startArrow=block;startFill=0;" parent="1" source="a6dslvJ8g0uNkc3i4jEf-1" target="a6dslvJ8g0uNkc3i4jEf-33" edge="1">
          <mxGeometry relative="1" as="geometry" />
        </mxCell>
        <mxCell id="X3__ifQOlJoH67yWw0tZ-10" style="edgeStyle=orthogonalEdgeStyle;rounded=0;orthogonalLoop=1;jettySize=auto;html=1;entryX=0.5;entryY=0;entryDx=0;entryDy=0;endArrow=none;endFill=0;startArrow=block;startFill=0;" parent="1" source="a6dslvJ8g0uNkc3i4jEf-1" target="a6dslvJ8g0uNkc3i4jEf-45" edge="1">
          <mxGeometry relative="1" as="geometry">
            <Array as="points">
              <mxPoint x="1265" y="5780" />
              <mxPoint x="611" y="5780" />
            </Array>
          </mxGeometry>
        </mxCell>
        <mxCell id="X3__ifQOlJoH67yWw0tZ-11" style="edgeStyle=orthogonalEdgeStyle;rounded=0;orthogonalLoop=1;jettySize=auto;html=1;entryX=0.5;entryY=0;entryDx=0;entryDy=0;endArrow=none;endFill=0;startArrow=block;startFill=0;" parent="1" source="a6dslvJ8g0uNkc3i4jEf-1" target="a6dslvJ8g0uNkc3i4jEf-29" edge="1">
          <mxGeometry relative="1" as="geometry">
            <Array as="points">
              <mxPoint x="1265" y="5780" />
              <mxPoint x="941" y="5780" />
            </Array>
          </mxGeometry>
        </mxCell>
        <mxCell id="X3__ifQOlJoH67yWw0tZ-12" style="edgeStyle=orthogonalEdgeStyle;rounded=0;orthogonalLoop=1;jettySize=auto;html=1;entryX=0.5;entryY=0;entryDx=0;entryDy=0;startArrow=block;startFill=0;endArrow=none;endFill=0;" parent="1" source="a6dslvJ8g0uNkc3i4jEf-1" target="a6dslvJ8g0uNkc3i4jEf-37" edge="1">
          <mxGeometry relative="1" as="geometry">
            <Array as="points">
              <mxPoint x="1265" y="5780" />
              <mxPoint x="1591" y="5780" />
            </Array>
          </mxGeometry>
        </mxCell>
        <mxCell id="X3__ifQOlJoH67yWw0tZ-13" style="edgeStyle=orthogonalEdgeStyle;rounded=0;orthogonalLoop=1;jettySize=auto;html=1;entryX=0.5;entryY=0;entryDx=0;entryDy=0;endArrow=none;endFill=0;startArrow=block;startFill=0;" parent="1" source="a6dslvJ8g0uNkc3i4jEf-1" target="a6dslvJ8g0uNkc3i4jEf-41" edge="1">
          <mxGeometry relative="1" as="geometry">
            <Array as="points">
              <mxPoint x="1265" y="5780" />
              <mxPoint x="1901" y="5780" />
            </Array>
          </mxGeometry>
        </mxCell>
        <mxCell id="a6dslvJ8g0uNkc3i4jEf-1" value="Goon&#xa;" style="swimlane;fontStyle=1;align=center;verticalAlign=top;childLayout=stackLayout;horizontal=1;startSize=26;horizontalStack=0;resizeParent=1;resizeParentMax=0;resizeLast=0;collapsible=1;marginBottom=0;fillColor=#e1d5e7;strokeColor=#9673a6;" parent="1" vertex="1">
          <mxGeometry x="1130" y="5440" width="270" height="250" as="geometry" />
        </mxCell>
        <mxCell id="a6dslvJ8g0uNkc3i4jEf-2" value="" style="line;strokeWidth=1;fillColor=none;align=left;verticalAlign=middle;spacingTop=-1;spacingLeft=3;spacingRight=3;rotatable=0;labelPosition=right;points=[];portConstraint=eastwest;strokeColor=inherit;" parent="a6dslvJ8g0uNkc3i4jEf-1" vertex="1">
          <mxGeometry y="26" width="270" height="8" as="geometry" />
        </mxCell>
        <mxCell id="a6dslvJ8g0uNkc3i4jEf-3" value="+ Goon()&#xa;+ Goon(x: int, y: int, animation: CharacterAnimation, name: string, movement_logic: Movement, damage_dealt: Damage)&#xa;+ ~Goon()" style="text;strokeColor=none;fillColor=none;align=left;verticalAlign=top;spacingLeft=4;spacingRight=4;overflow=hidden;rotatable=0;points=[[0,0.5],[1,0.5]];portConstraint=eastwest;whiteSpace=wrap;" parent="a6dslvJ8g0uNkc3i4jEf-1" vertex="1">
          <mxGeometry y="34" width="270" height="88" as="geometry" />
        </mxCell>
        <mxCell id="a6dslvJ8g0uNkc3i4jEf-4" value="+ chasePlayer(Player&amp; arg, vector&lt;Ground&gt;&amp; grounds, vector&lt;Platform&gt;&amp; platforms): void&#xa;+ detectAndAttack(Player&amp; arg) = 0: void&#xa;+ attack(): void&#xa;&#xa;+ setNextFrame(): void&#xa;+ update(): void&#xa;+ render(renderer: SDL_Renderer*): void" style="text;strokeColor=none;fillColor=none;align=left;verticalAlign=top;spacingLeft=4;spacingRight=4;overflow=hidden;rotatable=0;points=[[0,0.5],[1,0.5]];portConstraint=eastwest;whiteSpace=wrap;" parent="a6dslvJ8g0uNkc3i4jEf-1" vertex="1">
          <mxGeometry y="122" width="270" height="128" as="geometry" />
        </mxCell>
        <mxCell id="a6dslvJ8g0uNkc3i4jEf-29" value="MeleeGoon" style="swimlane;fontStyle=1;align=center;verticalAlign=top;childLayout=stackLayout;horizontal=1;startSize=26;horizontalStack=0;resizeParent=1;resizeParentMax=0;resizeLast=0;collapsible=1;marginBottom=0;fillColor=#e1d5e7;strokeColor=#9673a6;" parent="1" vertex="1">
          <mxGeometry x="806" y="5860" width="270" height="174" as="geometry" />
        </mxCell>
        <mxCell id="a6dslvJ8g0uNkc3i4jEf-30" value="" style="line;strokeWidth=1;fillColor=none;align=left;verticalAlign=middle;spacingTop=-1;spacingLeft=3;spacingRight=3;rotatable=0;labelPosition=right;points=[];portConstraint=eastwest;strokeColor=inherit;" parent="a6dslvJ8g0uNkc3i4jEf-29" vertex="1">
          <mxGeometry y="26" width="270" height="8" as="geometry" />
        </mxCell>
        <mxCell id="a6dslvJ8g0uNkc3i4jEf-31" value="+ MeleeGoon()&#xa;+ MeleeGoon(x: int, y: int, animation: CharacterAnimation, name: string, movement_logic: Movement, damage_dealt: Damage)&#xa;+ ~MeleeGoon()" style="text;strokeColor=none;fillColor=none;align=left;verticalAlign=top;spacingLeft=4;spacingRight=4;overflow=hidden;rotatable=0;points=[[0,0.5],[1,0.5]];portConstraint=eastwest;whiteSpace=wrap;" parent="a6dslvJ8g0uNkc3i4jEf-29" vertex="1">
          <mxGeometry y="34" width="270" height="100" as="geometry" />
        </mxCell>
        <mxCell id="a6dslvJ8g0uNkc3i4jEf-32" value="+ detectAndAttack(Player&amp; arg): void&#xa;+ pounce(): void" style="text;strokeColor=none;fillColor=none;align=left;verticalAlign=top;spacingLeft=4;spacingRight=4;overflow=hidden;rotatable=0;points=[[0,0.5],[1,0.5]];portConstraint=eastwest;whiteSpace=wrap;" parent="a6dslvJ8g0uNkc3i4jEf-29" vertex="1">
          <mxGeometry y="134" width="270" height="40" as="geometry" />
        </mxCell>
        <mxCell id="a6dslvJ8g0uNkc3i4jEf-33" value="RangeGoon" style="swimlane;fontStyle=1;align=center;verticalAlign=top;childLayout=stackLayout;horizontal=1;startSize=26;horizontalStack=0;resizeParent=1;resizeParentMax=0;resizeLast=0;collapsible=1;marginBottom=0;fillColor=#e1d5e7;strokeColor=#9673a6;" parent="1" vertex="1">
          <mxGeometry x="1135" y="5860" width="260" height="290" as="geometry" />
        </mxCell>
        <mxCell id="a6dslvJ8g0uNkc3i4jEf-34" value="" style="line;strokeWidth=1;fillColor=none;align=left;verticalAlign=middle;spacingTop=-1;spacingLeft=3;spacingRight=3;rotatable=0;labelPosition=right;points=[];portConstraint=eastwest;strokeColor=inherit;" parent="a6dslvJ8g0uNkc3i4jEf-33" vertex="1">
          <mxGeometry y="26" width="260" height="8" as="geometry" />
        </mxCell>
        <mxCell id="a6dslvJ8g0uNkc3i4jEf-35" value="+ RangeGoon()&#xa;+ RangeGoon(x: int, y: int, animation: CharacterAnimation, name: string, movement_logic: Movement, damage_dealt: Damage)&#xa;+ ~RangeGoon()" style="text;strokeColor=none;fillColor=none;align=left;verticalAlign=top;spacingLeft=4;spacingRight=4;overflow=hidden;rotatable=0;points=[[0,0.5],[1,0.5]];portConstraint=eastwest;whiteSpace=wrap;" parent="a6dslvJ8g0uNkc3i4jEf-33" vertex="1">
          <mxGeometry y="34" width="260" height="100" as="geometry" />
        </mxCell>
        <mxCell id="a6dslvJ8g0uNkc3i4jEf-36" value="+ chasePlayer(Player&amp; arg, vector&lt;Ground&gt;&amp; grounds, vector&lt;Platform&gt;&amp; platforms): void&#xa;+ detectAndAttack(Player&amp; arg): void&#xa;&#xa;+ loadLaserBeamTexture(laser_beam_texture: SDL_Texture*): bool&#xa;&#xa;+ getLaserBeams(): vector&lt;LaserBeam&gt;&amp;&#xa;&#xa;+ shoot(): void" style="text;strokeColor=none;fillColor=none;align=left;verticalAlign=top;spacingLeft=4;spacingRight=4;overflow=hidden;rotatable=0;points=[[0,0.5],[1,0.5]];portConstraint=eastwest;whiteSpace=wrap;" parent="a6dslvJ8g0uNkc3i4jEf-33" vertex="1">
          <mxGeometry y="134" width="260" height="156" as="geometry" />
        </mxCell>
        <mxCell id="a6dslvJ8g0uNkc3i4jEf-37" value="SniperGoon&#xa;" style="swimlane;fontStyle=1;align=center;verticalAlign=top;childLayout=stackLayout;horizontal=1;startSize=26;horizontalStack=0;resizeParent=1;resizeParentMax=0;resizeLast=0;collapsible=1;marginBottom=0;fillColor=#e1d5e7;strokeColor=#9673a6;" parent="1" vertex="1">
          <mxGeometry x="1456" y="5860" width="270" height="290" as="geometry" />
        </mxCell>
        <mxCell id="a6dslvJ8g0uNkc3i4jEf-38" value="" style="line;strokeWidth=1;fillColor=none;align=left;verticalAlign=middle;spacingTop=-1;spacingLeft=3;spacingRight=3;rotatable=0;labelPosition=right;points=[];portConstraint=eastwest;strokeColor=inherit;" parent="a6dslvJ8g0uNkc3i4jEf-37" vertex="1">
          <mxGeometry y="26" width="270" height="8" as="geometry" />
        </mxCell>
        <mxCell id="a6dslvJ8g0uNkc3i4jEf-39" value="+ SniperGoon()&#xa;+ SniperGoon(x: int, y: int, animation: CharacterAnimation, name: string, movement_logic: Movement, damage_dealt: Damage)&#xa;+ ~SniperGoon()" style="text;strokeColor=none;fillColor=none;align=left;verticalAlign=top;spacingLeft=4;spacingRight=4;overflow=hidden;rotatable=0;points=[[0,0.5],[1,0.5]];portConstraint=eastwest;whiteSpace=wrap;" parent="a6dslvJ8g0uNkc3i4jEf-37" vertex="1">
          <mxGeometry y="34" width="270" height="100" as="geometry" />
        </mxCell>
        <mxCell id="a6dslvJ8g0uNkc3i4jEf-40" value="+ chasePlayer(Player&amp; arg, vector&lt;Ground&gt;&amp; grounds, vector&lt;Platform&gt;&amp; platforms): void&#xa;+ detectAndAttack(Player&amp; arg): void&#xa;&#xa;+ loadLaserBeamTexture(laser_beam_texture: SDL_Texture*): bool&#xa;&#xa;+ getLaserBeams(): vector&lt;LaserBeam&gt;&amp;&#xa;&#xa;+ shoot(): void" style="text;strokeColor=none;fillColor=none;align=left;verticalAlign=top;spacingLeft=4;spacingRight=4;overflow=hidden;rotatable=0;points=[[0,0.5],[1,0.5]];portConstraint=eastwest;whiteSpace=wrap;" parent="a6dslvJ8g0uNkc3i4jEf-37" vertex="1">
          <mxGeometry y="134" width="270" height="156" as="geometry" />
        </mxCell>
        <mxCell id="a6dslvJ8g0uNkc3i4jEf-41" value="ShieldGoon" style="swimlane;fontStyle=1;align=center;verticalAlign=top;childLayout=stackLayout;horizontal=1;startSize=26;horizontalStack=0;resizeParent=1;resizeParentMax=0;resizeLast=0;collapsible=1;marginBottom=0;fillColor=#e1d5e7;strokeColor=#9673a6;" parent="1" vertex="1">
          <mxGeometry x="1766" y="5860" width="270" height="162" as="geometry" />
        </mxCell>
        <mxCell id="a6dslvJ8g0uNkc3i4jEf-42" value="" style="line;strokeWidth=1;fillColor=none;align=left;verticalAlign=middle;spacingTop=-1;spacingLeft=3;spacingRight=3;rotatable=0;labelPosition=right;points=[];portConstraint=eastwest;strokeColor=inherit;" parent="a6dslvJ8g0uNkc3i4jEf-41" vertex="1">
          <mxGeometry y="26" width="270" height="8" as="geometry" />
        </mxCell>
        <mxCell id="a6dslvJ8g0uNkc3i4jEf-43" value="+ ShieldGoon()&#xa;+ ShieldGoon(x: int, y: int, animation: CharacterAnimation, name: string, movement_logic: Movement, damage_dealt: Damage)&#xa;+ ~ShieldGoon()" style="text;strokeColor=none;fillColor=none;align=left;verticalAlign=top;spacingLeft=4;spacingRight=4;overflow=hidden;rotatable=0;points=[[0,0.5],[1,0.5]];portConstraint=eastwest;whiteSpace=wrap;" parent="a6dslvJ8g0uNkc3i4jEf-41" vertex="1">
          <mxGeometry y="34" width="270" height="100" as="geometry" />
        </mxCell>
        <mxCell id="a6dslvJ8g0uNkc3i4jEf-44" value="+ detectAndAttack(Player&amp; arg): void" style="text;strokeColor=none;fillColor=none;align=left;verticalAlign=top;spacingLeft=4;spacingRight=4;overflow=hidden;rotatable=0;points=[[0,0.5],[1,0.5]];portConstraint=eastwest;whiteSpace=wrap;" parent="a6dslvJ8g0uNkc3i4jEf-41" vertex="1">
          <mxGeometry y="134" width="270" height="28" as="geometry" />
        </mxCell>
        <mxCell id="a6dslvJ8g0uNkc3i4jEf-45" value="KamikazeGoon" style="swimlane;fontStyle=1;align=center;verticalAlign=top;childLayout=stackLayout;horizontal=1;startSize=26;horizontalStack=0;resizeParent=1;resizeParentMax=0;resizeLast=0;collapsible=1;marginBottom=0;fillColor=#e1d5e7;strokeColor=#9673a6;" parent="1" vertex="1">
          <mxGeometry x="476" y="5860" width="270" height="172" as="geometry" />
        </mxCell>
        <mxCell id="a6dslvJ8g0uNkc3i4jEf-46" value="" style="line;strokeWidth=1;fillColor=none;align=left;verticalAlign=middle;spacingTop=-1;spacingLeft=3;spacingRight=3;rotatable=0;labelPosition=right;points=[];portConstraint=eastwest;strokeColor=inherit;" parent="a6dslvJ8g0uNkc3i4jEf-45" vertex="1">
          <mxGeometry y="26" width="270" height="8" as="geometry" />
        </mxCell>
        <mxCell id="a6dslvJ8g0uNkc3i4jEf-47" value="+ KamikazeGoon()&#xa;+ KamikazeGoon(x: int, y: int, animation: CharacterAnimation, name: string, movement_logic: Movement, damage_dealt: Damage)&#xa;+ ~KamikazeGoon()" style="text;strokeColor=none;fillColor=none;align=left;verticalAlign=top;spacingLeft=4;spacingRight=4;overflow=hidden;rotatable=0;points=[[0,0.5],[1,0.5]];portConstraint=eastwest;whiteSpace=wrap;" parent="a6dslvJ8g0uNkc3i4jEf-45" vertex="1">
          <mxGeometry y="34" width="270" height="110" as="geometry" />
        </mxCell>
        <mxCell id="a6dslvJ8g0uNkc3i4jEf-48" value="+ detectAndAttack(Player&amp; arg): void" style="text;strokeColor=none;fillColor=none;align=left;verticalAlign=top;spacingLeft=4;spacingRight=4;overflow=hidden;rotatable=0;points=[[0,0.5],[1,0.5]];portConstraint=eastwest;whiteSpace=wrap;" parent="a6dslvJ8g0uNkc3i4jEf-45" vertex="1">
          <mxGeometry y="144" width="270" height="28" as="geometry" />
        </mxCell>
        <mxCell id="a6dslvJ8g0uNkc3i4jEf-65" value="&amp;lt;&amp;lt;structure&amp;gt;&amp;gt;&lt;br&gt;&lt;b&gt;Knockback&lt;/b&gt;" style="swimlane;fontStyle=0;align=center;verticalAlign=top;childLayout=stackLayout;horizontal=1;startSize=40;horizontalStack=0;resizeParent=1;resizeParentMax=0;resizeLast=0;collapsible=0;marginBottom=0;html=1;fillColor=#FFCCE6;" parent="1" vertex="1">
          <mxGeometry x="975" y="3427" width="210" height="90" as="geometry" />
        </mxCell>
        <mxCell id="a6dslvJ8g0uNkc3i4jEf-66" value="+ self: int&lt;br&gt;+ attack: int&lt;br&gt;+ contact: int" style="text;html=1;strokeColor=none;fillColor=none;align=left;verticalAlign=middle;spacingLeft=4;spacingRight=4;overflow=hidden;rotatable=0;points=[[0,0.5],[1,0.5]];portConstraint=eastwest;" parent="a6dslvJ8g0uNkc3i4jEf-65" vertex="1">
          <mxGeometry y="40" width="210" height="50" as="geometry" />
        </mxCell>
        <mxCell id="a6dslvJ8g0uNkc3i4jEf-67" style="edgeStyle=orthogonalEdgeStyle;rounded=0;orthogonalLoop=1;jettySize=auto;html=1;exitX=1;exitY=0.5;exitDx=0;exitDy=0;dashed=1;endArrow=none;endFill=0;" parent="1" source="a6dslvJ8g0uNkc3i4jEf-66" target="hQDoFeYBahZATQD71TL4-9" edge="1">
          <mxGeometry relative="1" as="geometry" />
        </mxCell>
        <mxCell id="a6dslvJ8g0uNkc3i4jEf-68" value="Healthbar" style="swimlane;fontStyle=1;align=center;verticalAlign=top;childLayout=stackLayout;horizontal=1;startSize=26;horizontalStack=0;resizeParent=1;resizeParentMax=0;resizeLast=0;collapsible=1;marginBottom=0;fillColor=#FFCCE6;" parent="1" vertex="1">
          <mxGeometry x="2300" y="3260" width="390" height="120" as="geometry" />
        </mxCell>
        <mxCell id="a6dslvJ8g0uNkc3i4jEf-70" value="" style="line;strokeWidth=1;fillColor=none;align=left;verticalAlign=middle;spacingTop=-1;spacingLeft=3;spacingRight=3;rotatable=0;labelPosition=right;points=[];portConstraint=eastwest;strokeColor=inherit;" parent="a6dslvJ8g0uNkc3i4jEf-68" vertex="1">
          <mxGeometry y="26" width="390" height="8" as="geometry" />
        </mxCell>
        <mxCell id="a6dslvJ8g0uNkc3i4jEf-71" value="+ Healthbar()&#xa;+ Healthbar(x: int, y: int)&#xa;+ ~Healthbar()&#xa;&#xa;+update(): bool" style="text;strokeColor=none;fillColor=none;align=left;verticalAlign=top;spacingLeft=4;spacingRight=4;overflow=hidden;rotatable=0;points=[[0,0.5],[1,0.5]];portConstraint=eastwest;whiteSpace=wrap;" parent="a6dslvJ8g0uNkc3i4jEf-68" vertex="1">
          <mxGeometry y="34" width="390" height="86" as="geometry" />
        </mxCell>
        <mxCell id="a6dslvJ8g0uNkc3i4jEf-72" style="edgeStyle=orthogonalEdgeStyle;rounded=0;orthogonalLoop=1;jettySize=auto;html=1;exitX=0;exitY=0.5;exitDx=0;exitDy=0;entryX=1;entryY=0.5;entryDx=0;entryDy=0;endArrow=block;endFill=0;" parent="1" source="a6dslvJ8g0uNkc3i4jEf-71" target="xrFbDY1ulE0IEn7EpgWR-6" edge="1">
          <mxGeometry relative="1" as="geometry" />
        </mxCell>
        <mxCell id="X3__ifQOlJoH67yWw0tZ-1" style="edgeStyle=orthogonalEdgeStyle;rounded=0;orthogonalLoop=1;jettySize=auto;html=1;entryX=1;entryY=0.5;entryDx=0;entryDy=0;endArrow=block;endFill=0;" parent="1" source="LEnjLOv2VGJ0EA_hLY6k-32" target="xrFbDY1ulE0IEn7EpgWR-6" edge="1">
          <mxGeometry relative="1" as="geometry" />
        </mxCell>
        <mxCell id="rHJlb6HxjNZ4FKYGz4qk-3" style="edgeStyle=orthogonalEdgeStyle;rounded=0;orthogonalLoop=1;jettySize=auto;html=1;entryX=0.5;entryY=0;entryDx=0;entryDy=0;entryPerimeter=0;endArrow=none;endFill=0;dashed=1;" parent="1" source="xrFbDY1ulE0IEn7EpgWR-58" target="hQDoFeYBahZATQD71TL4-9" edge="1">
          <mxGeometry relative="1" as="geometry" />
        </mxCell>
        <mxCell id="rHJlb6HxjNZ4FKYGz4qk-17" style="edgeStyle=orthogonalEdgeStyle;rounded=0;orthogonalLoop=1;jettySize=auto;html=1;entryX=0.5;entryY=0;entryDx=0;entryDy=0;endArrow=none;endFill=0;dashed=1;" parent="1" source="rHJlb6HxjNZ4FKYGz4qk-13" target="xrFbDY1ulE0IEn7EpgWR-61" edge="1">
          <mxGeometry relative="1" as="geometry" />
        </mxCell>
        <mxCell id="rHJlb6HxjNZ4FKYGz4qk-13" value="&lt;b&gt;NOTE&lt;/b&gt;: in the header file &quot;Character.h&quot;" style="shape=note;whiteSpace=wrap;html=1;backgroundOutline=1;darkOpacity=0.05;" parent="1" vertex="1">
          <mxGeometry x="1615" y="3770" width="110" height="100" as="geometry" />
        </mxCell>
      </root>
    </mxGraphModel>
  </diagram>
</mxfile>
